<svg xmlns="http://www.w3.org/2000/svg" width="375" viewBox="0 0 375 375" height="375" version="1.0"><defs><clipPath id="a"><path d="M 32 15 L 343 15 L 343 325 L 32 325 Z M 32 15"/></clipPath></defs><g clip-path="url(#a)"><path fill="#DB492B" d="M 273.25 246.972656 C 259.65625 262.039062 237.640625 265.601562 219.402344 256.695312 C 210.480469 252.34375 199.457031 249.761719 187.5 249.761719 C 175.542969 249.761719 164.519531 252.332031 155.613281 256.695312 C 137.214844 265.675781 115.09375 261.878906 101.441406 246.636719 C 81.394531 224.269531 69.964844 194.03125 72.3125 161.121094 C 76.386719 104.335938 122.351562 58.445312 179.132812 54.445312 C 246.691406 49.671875 302.992188 103.082031 302.992188 169.632812 C 302.992188 199.386719 291.734375 226.5 273.25 246.972656 Z M 187.5 14.878906 C 102.042969 14.878906 32.746094 84.171875 32.746094 169.632812 C 32.746094 255.105469 102.042969 324.386719 187.5 324.386719 C 272.957031 324.386719 342.253906 255.105469 342.253906 169.632812 C 342.253906 84.171875 272.957031 14.878906 187.5 14.878906"/></g><path fill="#DB492B" d="M 359.730469 128.96875 L 349.496094 128.96875 C 352.765625 141.976562 354.503906 155.613281 354.503906 169.632812 C 354.503906 183.5625 352.78125 197.109375 349.554688 210.0625 L 359.730469 210.0625 C 367.820312 210.0625 374.390625 203.492188 374.390625 195.402344 L 374.390625 143.613281 C 374.390625 135.523438 367.820312 128.96875 359.730469 128.96875"/><path fill="#DB492B" d="M 36.921875 51.992188 C 36.921875 42.109375 28.90625 34.09375 19.019531 34.09375 C 9.136719 34.09375 1.121094 42.109375 1.121094 51.992188 C 1.121094 59.730469 6.039062 66.285156 12.902344 68.796875 L 12.890625 68.796875 L 12.890625 129.171875 C 5.925781 130.3125 0.609375 136.339844 0.609375 143.613281 L 0.609375 195.402344 C 0.609375 203.492188 7.179688 210.0625 15.269531 210.0625 L 25.445312 210.0625 C 22.21875 197.109375 20.496094 183.5625 20.496094 169.632812 C 20.496094 155.613281 22.234375 141.976562 25.503906 128.96875 L 25.503906 68.667969 C 32.191406 66.066406 36.921875 59.585938 36.921875 51.992188"/><path fill="#DB492B" d="M 286.929688 303.738281 C 259.132812 324.398438 224.71875 336.648438 187.5 336.648438 C 150.121094 336.648438 115.5625 324.296875 87.703125 303.476562 L 72.722656 330.253906 C 65.335938 343.453125 74.882812 359.75 90.023438 359.75 L 284.976562 359.75 C 300.117188 359.75 309.664062 343.453125 302.277344 330.253906 L 286.929688 303.738281"/></svg>