<?xml version="1.0" encoding="UTF-8"?><svg xmlns="http://www.w3.org/2000/svg" xmlns:xlink="http://www.w3.org/1999/xlink" contentScriptType="text/ecmascript" width="375" zoomAndPan="magnify" contentStyleType="text/css" viewBox="0 0 375 374.999991" height="374.999991" preserveAspectRatio="xMidYMid meet" version="1.0"><defs><clipPath id="clip-0"><path d="M 0 33 L 369.917969 33 L 369.917969 374.933594 L 0 374.933594 Z M 0 33 " clip-rule="nonzero"/></clipPath><clipPath id="clip-1"><path d="M 31 33 L 366.746094 33 L 366.746094 374.933594 L 31 374.933594 Z M 31 33 " clip-rule="nonzero"/></clipPath><clipPath id="clip-2"><path d="M 0 28.59375 L 360 28.59375 L 360 364 L 0 364 Z M 0 28.59375 " clip-rule="nonzero"/></clipPath><clipPath id="clip-3"><path d="M 27 33.507812 L 369.917969 33.507812 L 369.917969 374.933594 L 27 374.933594 Z M 27 33.507812 " clip-rule="nonzero"/></clipPath><clipPath id="clip-4"><path d="M 69.0625 120.058594 L 374.992188 120.058594 L 374.992188 364.621094 L 69.0625 364.621094 Z M 69.0625 120.058594 " clip-rule="nonzero"/></clipPath></defs><g clip-path="url(#clip-0)"><path fill="rgb(96.469116%, 51.368713%, 41.958618%)" d="M 326.972656 300.308594 L 313.210938 279.613281 L 307.898438 279.613281 C 302.511719 286.800781 296.828125 293.726562 290.902344 300.308594 Z M 55.828125 67.488281 C 55.828125 67.804688 55.855469 68.117188 55.898438 68.421875 C 59.316406 66.097656 62.859375 63.894531 66.503906 61.816406 C 65.410156 61.074219 64.089844 60.640625 62.671875 60.640625 C 58.898438 60.640625 55.828125 63.710938 55.828125 67.488281 Z M 369.753906 312.683594 L 353.796875 312.683594 L 361.023438 374.933594 L 349.433594 374.933594 L 342.203125 312.683594 L 301.339844 312.683594 L 294.113281 374.933594 L 282.519531 374.933594 L 289.746094 312.683594 L 279.050781 312.683594 C 248.140625 342.957031 211.957031 363.363281 176.496094 363.363281 C 160.644531 363.363281 144.941406 360.273438 129.8125 354.710938 L 132.164062 374.933594 L 120.570312 374.933594 L 117.632812 349.640625 C 101.285156 342.039062 85.792969 331.585938 71.734375 319.089844 L 65.25 374.933594 L 53.660156 374.933594 L 60.886719 312.683594 L 45.804688 312.683594 L 45.804688 300.308594 L 53.03125 300.308594 C 20.933594 263.992188 0 216.804688 0 172.042969 C 0 130.300781 18.207031 97.960938 46.691406 75.210938 C 46.199219 74.195312 45.800781 73.136719 45.515625 72.039062 L 40.300781 70.894531 L 40.300781 64.082031 L 45.515625 62.933594 C 45.921875 61.402344 46.523438 59.9375 47.320312 58.570312 L 44.445312 54.074219 L 49.261719 49.257812 L 53.757812 52.132812 C 55.128906 51.335938 56.585938 50.730469 58.121094 50.324219 L 59.265625 45.109375 L 66.078125 45.109375 L 67.222656 50.324219 C 68.753906 50.730469 70.21875 51.335938 71.585938 52.132812 L 76.082031 49.257812 L 80.898438 54.074219 L 80.546875 54.621094 C 83.136719 53.4375 85.769531 52.304688 88.441406 51.226562 L 88.441406 45.109375 L 105.839844 45.109375 C 119.84375 40.878906 134.617188 37.976562 149.765625 36.410156 C 149.75 36.28125 149.726562 36.15625 149.726562 36.019531 C 149.726562 34.4375 151.015625 33.148438 152.597656 33.148438 C 154.132812 33.148438 155.378906 34.363281 155.453125 35.882812 C 162.414062 35.324219 169.4375 35.039062 176.496094 35.039062 C 267.132812 35.039062 362.464844 48.742188 362.464844 139.40625 C 362.464844 181.25 342.15625 232.179688 311.371094 274.890625 L 335.429688 274.890625 L 352.328125 300.308594 L 369.753906 300.308594 Z M 42.273438 38.890625 C 43.855469 38.890625 45.140625 37.601562 45.140625 36.019531 C 45.140625 34.4375 43.855469 33.148438 42.273438 33.148438 C 40.6875 33.148438 39.402344 34.4375 39.402344 36.019531 C 39.402344 37.601562 40.6875 38.890625 42.273438 38.890625 Z M 262.570312 36.019531 C 262.570312 34.4375 263.859375 33.148438 265.441406 33.148438 C 267.027344 33.148438 268.3125 34.4375 268.3125 36.019531 C 268.3125 37.601562 267.027344 38.890625 265.441406 38.890625 C 263.859375 38.890625 262.570312 37.601562 262.570312 36.019531 " fill-opacity="1" fill-rule="nonzero"/></g><g clip-path="url(#clip-1)"><path fill="rgb(36.859131%, 78.819275%, 79.998779%)" d="M 257.578125 38.097656 C 258.726562 38.097656 259.65625 37.164062 259.65625 36.019531 C 259.65625 34.875 258.726562 33.941406 257.578125 33.941406 C 256.429688 33.941406 255.5 34.875 255.5 36.019531 C 255.5 37.164062 256.429688 38.097656 257.578125 38.097656 Z M 304.558594 100.265625 L 314.226562 100.265625 L 314.226562 97.882812 L 304.558594 97.882812 Z M 300.808594 68.121094 L 287.632812 60.25 L 287.632812 75.996094 Z M 333.730469 89.863281 L 254.710938 89.863281 L 254.710938 48.578125 L 333.730469 48.578125 Z M 318.4375 95.234375 L 311.703125 95.234375 L 311.703125 97.617188 L 318.4375 97.617188 Z M 304.558594 95.234375 L 304.558594 97.617188 L 311.292969 97.617188 L 311.292969 95.234375 Z M 318.4375 92.589844 L 304.558594 92.589844 L 304.558594 94.972656 L 318.4375 94.972656 Z M 96.238281 100.398438 L 88.160156 100.398438 L 88.160156 101.195312 L 96.238281 101.195312 Z M 100.445312 98.546875 L 100.445312 97.75 L 95.304688 97.75 L 95.304688 98.546875 Z M 93.300781 97.75 L 88.160156 97.75 L 88.160156 98.546875 L 93.300781 98.546875 Z M 100.445312 95.105469 L 88.160156 95.105469 L 88.160156 95.898438 L 100.445312 95.898438 Z M 45.554688 100.398438 L 37.476562 100.398438 L 37.476562 101.195312 L 45.554688 101.195312 Z M 49.761719 98.546875 L 49.761719 97.75 L 44.621094 97.75 L 44.621094 98.546875 Z M 42.617188 97.75 L 37.476562 97.75 L 37.476562 98.546875 L 42.617188 98.546875 Z M 49.761719 95.105469 L 37.476562 95.105469 L 37.476562 95.898438 L 49.761719 95.898438 Z M 103.363281 75.746094 L 89.234375 75.746094 L 89.234375 80.691406 L 103.363281 80.691406 Z M 103.363281 54.164062 L 89.234375 54.164062 L 89.234375 59.105469 L 103.363281 59.105469 Z M 34.410156 38.097656 C 35.554688 38.097656 36.484375 37.164062 36.484375 36.019531 C 36.484375 34.875 35.554688 33.941406 34.410156 33.941406 C 33.261719 33.941406 32.332031 34.875 32.332031 36.019531 C 32.332031 37.164062 33.261719 38.097656 34.410156 38.097656 Z M 50.851562 67.488281 C 50.851562 74.007812 56.152344 79.3125 62.671875 79.3125 C 69.191406 79.3125 74.496094 74.007812 74.496094 67.488281 C 74.496094 60.96875 69.191406 55.660156 62.671875 55.660156 C 56.152344 55.660156 50.851562 60.96875 50.851562 67.488281 Z M 50.058594 67.488281 C 50.058594 60.527344 55.714844 54.867188 62.671875 54.867188 C 69.628906 54.867188 75.289062 60.527344 75.289062 67.488281 C 75.289062 74.445312 69.628906 80.105469 62.671875 80.105469 C 55.714844 80.105469 50.058594 74.445312 50.058594 67.488281 Z M 200.683594 138.722656 C 200.035156 138.722656 199.445312 139.25 199.363281 139.898438 C 199.28125 140.546875 199.742188 141.070312 200.390625 141.070312 C 201.039062 141.070312 201.628906 140.546875 201.710938 139.898438 C 201.792969 139.25 201.332031 138.722656 200.683594 138.722656 Z M 234.382812 139.101562 L 222.5625 139.101562 C 222.125 139.101562 221.765625 139.460938 221.765625 139.898438 C 221.765625 140.335938 222.125 140.691406 222.5625 140.691406 L 234.382812 140.691406 C 234.820312 140.691406 235.175781 140.335938 235.175781 139.898438 C 235.175781 139.460938 234.820312 139.101562 234.382812 139.101562 Z M 144.730469 38.890625 C 146.3125 38.890625 147.605469 37.601562 147.605469 36.019531 C 147.605469 34.4375 146.3125 33.148438 144.730469 33.148438 C 143.152344 33.148438 141.863281 34.4375 141.863281 36.019531 C 141.863281 37.601562 143.152344 38.890625 144.730469 38.890625 Z M 166.140625 92.300781 C 166.140625 93.554688 167.160156 94.574219 168.414062 94.574219 L 185.605469 94.574219 C 186.859375 94.574219 187.878906 93.554688 187.878906 92.300781 C 187.878906 91.046875 186.859375 90.03125 185.605469 90.03125 L 168.414062 90.03125 C 167.160156 90.03125 166.140625 91.046875 166.140625 92.300781 Z M 150.417969 80.757812 L 167.613281 80.757812 C 168.867188 80.757812 169.886719 79.738281 169.886719 78.484375 C 169.886719 77.230469 168.867188 76.210938 167.613281 76.210938 L 150.417969 76.210938 C 149.167969 76.210938 148.144531 77.230469 148.144531 78.484375 C 148.144531 79.738281 149.167969 80.757812 150.417969 80.757812 Z M 150.417969 66.9375 L 180.210938 66.9375 C 181.460938 66.9375 182.480469 65.917969 182.480469 64.664062 C 182.480469 63.410156 181.460938 62.394531 180.210938 62.394531 L 150.417969 62.394531 C 149.167969 62.394531 148.144531 63.410156 148.144531 64.664062 C 148.144531 65.917969 149.167969 66.9375 150.417969 66.9375 Z M 185.953125 80.757812 L 192.03125 80.757812 C 193.285156 80.757812 194.300781 79.738281 194.300781 78.484375 C 194.300781 77.230469 193.285156 76.210938 192.03125 76.210938 L 185.953125 76.210938 C 184.699219 76.210938 183.679688 77.230469 183.679688 78.484375 C 183.679688 79.738281 184.699219 80.757812 185.953125 80.757812 Z M 179.753906 80.757812 C 181.007812 80.757812 182.027344 79.738281 182.027344 78.484375 C 182.027344 77.230469 181.007812 76.210938 179.753906 76.210938 L 173.675781 76.210938 C 172.421875 76.210938 171.402344 77.230469 171.402344 78.484375 C 171.402344 79.738281 172.421875 80.757812 173.675781 80.757812 Z M 150.417969 60.03125 L 156.5 60.03125 C 157.753906 60.03125 158.773438 59.011719 158.773438 57.757812 C 158.773438 56.503906 157.753906 55.484375 156.5 55.484375 L 150.417969 55.484375 C 149.167969 55.484375 148.144531 56.503906 148.144531 57.757812 C 148.144531 59.011719 149.167969 60.03125 150.417969 60.03125 Z M 150.417969 53.121094 L 170.894531 53.121094 C 172.148438 53.121094 173.167969 52.101562 173.167969 50.851562 C 173.167969 49.597656 172.148438 48.578125 170.894531 48.578125 L 150.417969 48.578125 C 149.167969 48.578125 148.144531 49.597656 148.144531 50.851562 C 148.144531 52.101562 149.167969 53.121094 150.417969 53.121094 Z M 194.636719 353.382812 L 50.152344 353.382812 C 44.203125 353.382812 39.378906 358.207031 39.378906 364.160156 C 39.378906 370.109375 44.203125 374.933594 50.152344 374.933594 L 194.636719 374.933594 C 200.589844 374.933594 205.410156 370.109375 205.410156 364.160156 C 205.410156 358.207031 200.589844 353.382812 194.636719 353.382812 Z M 361.332031 128.257812 C 361.332031 127.820312 360.972656 127.460938 360.535156 127.460938 L 321.507812 127.460938 C 321.066406 127.460938 320.710938 127.820312 320.710938 128.257812 C 320.710938 128.695312 321.066406 129.050781 321.507812 129.050781 L 360.535156 129.050781 C 360.972656 129.050781 361.332031 128.695312 361.332031 128.257812 Z M 342.992188 140.691406 L 349.683594 140.691406 C 350.121094 140.691406 350.476562 140.335938 350.476562 139.898438 C 350.476562 139.460938 350.121094 139.101562 349.683594 139.101562 L 342.992188 139.101562 C 342.554688 139.101562 342.199219 139.460938 342.199219 139.898438 C 342.199219 140.335938 342.554688 140.691406 342.992188 140.691406 Z M 358.730469 145.085938 C 358.730469 144.648438 358.371094 144.292969 357.933594 144.292969 L 342.339844 144.292969 C 341.902344 144.292969 341.546875 144.648438 341.546875 145.085938 C 341.546875 145.523438 341.902344 145.878906 342.339844 145.878906 L 357.933594 145.878906 C 358.371094 145.878906 358.730469 145.523438 358.730469 145.085938 Z M 341.6875 151.070312 L 349.695312 151.070312 C 350.136719 151.070312 350.488281 150.710938 350.488281 150.273438 C 350.488281 149.835938 350.136719 149.480469 349.695312 149.480469 L 341.6875 149.480469 C 341.253906 149.480469 340.894531 149.835938 340.894531 150.273438 C 340.894531 150.710938 341.253906 151.070312 341.6875 151.070312 Z M 336.996094 184.171875 C 336.558594 184.171875 336.203125 184.523438 336.203125 184.964844 C 336.203125 185.402344 336.558594 185.757812 336.996094 185.757812 L 343.6875 185.757812 C 344.125 185.757812 344.480469 185.402344 344.480469 184.964844 C 344.480469 184.523438 344.125 184.171875 343.6875 184.171875 Z M 352.730469 190.148438 C 352.730469 189.714844 352.375 189.355469 351.9375 189.355469 L 336.34375 189.355469 C 335.90625 189.355469 335.550781 189.714844 335.550781 190.148438 C 335.550781 190.589844 335.90625 190.945312 336.34375 190.945312 L 351.9375 190.945312 C 352.375 190.945312 352.730469 190.589844 352.730469 190.148438 Z M 344.492188 195.339844 C 344.492188 194.898438 344.140625 194.546875 343.699219 194.546875 L 335.691406 194.546875 C 335.253906 194.546875 334.898438 194.898438 334.898438 195.339844 C 334.898438 195.777344 335.253906 196.132812 335.691406 196.132812 L 343.699219 196.132812 C 344.140625 196.132812 344.492188 195.777344 344.492188 195.339844 Z M 327.40625 145.683594 C 327.40625 145.246094 327.054688 144.890625 326.613281 144.890625 L 313.238281 144.890625 C 312.796875 144.890625 312.445312 145.246094 312.445312 145.683594 C 312.445312 146.125 312.796875 146.476562 313.238281 146.476562 L 326.613281 146.476562 C 327.054688 146.476562 327.40625 146.125 327.40625 145.683594 Z M 320.707031 156.0625 C 320.707031 155.621094 320.355469 155.269531 319.914062 155.269531 L 308.226562 155.269531 C 307.789062 155.269531 307.433594 155.621094 307.433594 156.0625 C 307.433594 156.5 307.789062 156.855469 308.226562 156.855469 L 319.914062 156.855469 C 320.355469 156.855469 320.707031 156.5 320.707031 156.0625 Z M 317.914062 221.230469 C 317.914062 220.792969 317.5625 220.433594 317.121094 220.433594 L 296.078125 220.433594 C 295.640625 220.433594 295.285156 220.792969 295.285156 221.230469 C 295.285156 221.667969 295.640625 222.023438 296.078125 222.023438 L 317.121094 222.023438 C 317.5625 222.023438 317.914062 221.667969 317.914062 221.230469 Z M 258.21875 134.113281 L 200.179688 134.113281 C 197.988281 134.113281 195.988281 135.890625 195.710938 138.082031 L 194.753906 145.683594 L 260.730469 145.683594 L 261.6875 138.082031 C 261.964844 135.890625 260.410156 134.113281 258.21875 134.113281 Z M 251.566406 193.804688 C 251.566406 193.363281 251.210938 193.011719 250.773438 193.011719 L 243.691406 193.011719 C 243.253906 193.011719 242.894531 193.363281 242.894531 193.804688 C 242.894531 194.242188 243.253906 194.597656 243.691406 194.597656 L 250.773438 194.597656 C 251.210938 194.597656 251.566406 194.242188 251.566406 193.804688 Z M 234.484375 197.617188 C 234.484375 197.175781 234.125 196.820312 233.691406 196.820312 L 227.058594 196.820312 C 226.621094 196.820312 226.261719 197.175781 226.261719 197.617188 C 226.261719 198.054688 226.621094 198.410156 227.058594 198.410156 L 233.691406 198.410156 C 234.125 198.410156 234.484375 198.054688 234.484375 197.617188 Z M 220.757812 193.804688 C 220.757812 193.363281 220.398438 193.011719 219.960938 193.011719 L 212.878906 193.011719 C 212.441406 193.011719 212.085938 193.363281 212.085938 193.804688 C 212.085938 194.242188 212.441406 194.597656 212.878906 194.597656 L 219.960938 194.597656 C 220.398438 194.597656 220.757812 194.242188 220.757812 193.804688 Z M 201.46875 224.488281 L 195.421875 224.488281 C 194.589844 224.488281 193.828125 225.164062 193.722656 226 C 193.621094 226.832031 194.210938 227.507812 195.042969 227.507812 L 201.089844 227.507812 C 201.921875 227.507812 202.683594 226.832031 202.789062 226 C 202.890625 225.164062 202.304688 224.488281 201.46875 224.488281 Z M 195.261719 214.152344 C 195.910156 214.152344 196.5 213.625 196.582031 212.976562 C 196.664062 212.328125 196.203125 211.800781 195.554688 211.800781 C 194.90625 211.800781 194.316406 212.328125 194.234375 212.976562 C 194.152344 213.625 194.613281 214.152344 195.261719 214.152344 Z M 194.566406 197.617188 C 194.566406 198.054688 194.917969 198.410156 195.359375 198.410156 L 200.230469 198.410156 C 200.667969 198.410156 201.023438 198.054688 201.023438 197.617188 C 201.023438 197.175781 200.667969 196.820312 200.230469 196.820312 L 195.359375 196.820312 C 194.917969 196.820312 194.566406 197.175781 194.566406 197.617188 Z M 225.734375 156.0625 C 225.734375 155.621094 225.378906 155.269531 224.9375 155.269531 L 209.945312 155.269531 C 209.507812 155.269531 209.152344 155.621094 209.152344 156.0625 C 209.152344 156.5 209.507812 156.855469 209.945312 156.855469 L 224.9375 156.855469 C 225.378906 156.855469 225.734375 156.5 225.734375 156.0625 Z M 276.527344 241.980469 C 276.527344 242.421875 276.882812 242.773438 277.320312 242.773438 L 307.675781 242.773438 C 308.117188 242.773438 308.46875 242.421875 308.46875 241.980469 C 308.46875 241.542969 308.117188 241.1875 307.675781 241.1875 L 277.320312 241.1875 C 276.882812 241.1875 276.527344 241.542969 276.527344 241.980469 Z M 283.410156 187.1875 C 283.410156 187.625 283.769531 187.980469 284.207031 187.980469 L 292.210938 187.980469 C 292.648438 187.980469 293.007812 187.625 293.007812 187.1875 C 293.007812 186.746094 292.648438 186.394531 292.210938 186.394531 L 284.207031 186.394531 C 283.769531 186.394531 283.410156 186.746094 283.410156 187.1875 Z M 286.019531 166.4375 C 286.019531 166.875 286.375 167.230469 286.8125 167.230469 L 296.460938 167.230469 C 296.902344 167.230469 297.253906 166.875 297.253906 166.4375 C 297.253906 165.996094 296.902344 165.644531 296.460938 165.644531 L 286.8125 165.644531 C 286.375 165.644531 286.019531 165.996094 286.019531 166.4375 Z M 287.972656 150.875 C 287.972656 151.3125 288.328125 151.667969 288.765625 151.667969 L 295.457031 151.667969 C 295.894531 151.667969 296.25 151.3125 296.25 150.875 C 296.25 150.4375 295.894531 150.078125 295.457031 150.078125 L 288.765625 150.078125 C 288.328125 150.078125 287.972656 150.4375 287.972656 150.875 Z M 314.554688 166.4375 C 314.554688 165.996094 314.195312 165.644531 313.761719 165.644531 L 299.929688 165.644531 C 299.492188 165.644531 299.136719 165.996094 299.136719 166.4375 C 299.136719 166.875 299.492188 167.230469 299.929688 167.230469 L 313.761719 167.230469 C 314.195312 167.230469 314.554688 166.875 314.554688 166.4375 Z M 316.65625 182.792969 C 317.097656 182.792969 317.449219 182.441406 317.449219 182 C 317.449219 181.5625 317.097656 181.203125 316.65625 181.203125 L 304.96875 181.203125 C 304.53125 181.203125 304.175781 181.5625 304.175781 182 C 304.175781 182.441406 304.53125 182.792969 304.96875 182.792969 Z M 366.394531 130.90625 L 354.097656 241.835938 C 353.734375 245.113281 350.972656 247.585938 347.675781 247.585938 L 175.503906 247.585938 C 173.636719 247.585938 171.929688 246.820312 170.691406 245.433594 C 170.441406 245.160156 170.230469 244.863281 170.039062 244.558594 C 168.25 257.269531 159.679688 271.605469 159.679688 282.789062 C 159.679688 295.066406 169.039062 312.683594 169.039062 312.683594 C 169.039062 312.683594 165.71875 340.179688 132.007812 340.179688 C 119.820312 340.179688 111.21875 338.042969 106.792969 336.597656 C 104.496094 335.847656 102.800781 333.914062 102.285156 331.554688 C 98.367188 313.757812 101.023438 288.496094 103.785156 279.613281 C 105.65625 273.609375 103.457031 242.851562 96.246094 220.925781 C 92.566406 209.742188 100.894531 198.230469 112.667969 198.230469 L 115.453125 189.355469 C 115.453125 189.355469 124.320312 185.070312 133.6875 186.972656 C 143.054688 188.882812 147.53125 191.457031 151.019531 191.945312 L 148.757812 198.28125 C 152.621094 198.617188 156.074219 200.917969 157.84375 204.425781 C 161.652344 212 167.714844 225.011719 169.703125 234.789062 L 181.375 129.480469 C 181.738281 126.203125 184.496094 123.730469 187.796875 123.730469 L 359.972656 123.730469 C 361.832031 123.730469 363.542969 124.496094 364.785156 125.882812 C 366.027344 127.269531 366.597656 129.054688 366.394531 130.90625 Z M 205.128906 138.722656 C 204.484375 138.722656 203.890625 139.25 203.808594 139.898438 C 203.726562 140.546875 204.183594 141.070312 204.832031 141.070312 C 205.480469 141.070312 206.074219 140.546875 206.152344 139.898438 C 206.238281 139.25 205.777344 138.722656 205.128906 138.722656 Z M 209.574219 138.722656 C 208.925781 138.722656 208.335938 139.25 208.253906 139.898438 C 208.171875 140.546875 208.632812 141.070312 209.28125 141.070312 C 209.929688 141.070312 210.519531 140.546875 210.601562 139.898438 C 210.679688 139.25 210.222656 138.722656 209.574219 138.722656 Z M 87.910156 135.097656 L 78.457031 135.097656 L 78.457031 155.714844 L 87.910156 155.714844 Z M 54.75 155.714844 L 64.199219 155.714844 L 64.199219 137.953125 L 54.75 137.953125 Z M 40.492188 155.714844 L 31.039062 155.714844 L 31.039062 144.148438 L 40.492188 144.148438 L 40.492188 155.714844 " fill-opacity="1" fill-rule="nonzero"/></g><g clip-path="url(#clip-2)"><path fill="rgb(95.289612%, 81.568909%, 82.348633%)" d="M 62.671875 75.128906 C 66.890625 75.128906 70.3125 71.710938 70.3125 67.488281 C 70.3125 63.265625 66.890625 59.84375 62.671875 59.84375 C 58.453125 59.84375 55.035156 63.265625 55.035156 67.488281 C 55.035156 71.710938 58.453125 75.128906 62.671875 75.128906 Z M 40.195312 36.019531 C 40.195312 37.164062 41.125 38.097656 42.273438 38.097656 C 43.421875 38.097656 44.347656 37.164062 44.347656 36.019531 C 44.347656 34.875 43.421875 33.941406 42.273438 33.941406 C 41.125 33.941406 40.195312 34.875 40.195312 36.019531 Z M 45.457031 54.183594 L 48.253906 58.558594 C 47.300781 60.09375 46.589844 61.792969 46.164062 63.605469 L 41.09375 64.71875 L 41.09375 70.253906 L 46.164062 71.371094 C 46.589844 73.183594 47.300781 74.882812 48.253906 76.417969 L 45.457031 80.789062 L 49.371094 84.707031 L 53.746094 81.910156 C 55.28125 82.863281 56.976562 83.574219 58.789062 83.996094 L 59.90625 89.070312 L 65.441406 89.070312 L 66.558594 83.996094 C 68.363281 83.574219 70.0625 82.863281 71.597656 81.910156 L 75.972656 84.707031 L 79.886719 80.789062 L 77.089844 76.417969 C 78.042969 74.882812 78.753906 73.183594 79.179688 71.371094 L 84.25 70.253906 L 84.25 64.71875 L 79.179688 63.605469 C 78.753906 61.792969 78.042969 60.09375 77.089844 58.558594 L 79.886719 54.183594 L 75.972656 50.265625 L 71.597656 53.066406 C 70.0625 52.113281 68.363281 51.398438 66.558594 50.976562 L 65.441406 45.902344 L 59.90625 45.902344 L 58.789062 50.976562 C 56.976562 51.398438 55.28125 52.113281 53.746094 53.066406 L 49.371094 50.265625 Z M 89.234375 72.433594 L 110.824219 72.433594 L 110.824219 67.488281 L 89.234375 67.488281 Z M 89.234375 50.851562 L 110.824219 50.851562 L 110.824219 45.902344 L 89.234375 45.902344 Z M 66.65625 95.105469 L 54.371094 95.105469 L 54.371094 95.898438 L 66.65625 95.898438 Z M 66.65625 97.75 L 61.515625 97.75 L 61.515625 98.546875 L 66.65625 98.546875 Z M 59.511719 98.546875 L 59.511719 97.75 L 54.371094 97.75 L 54.371094 98.546875 Z M 62.453125 100.398438 L 54.371094 100.398438 L 54.371094 101.195312 L 62.453125 101.195312 Z M 120.332031 90.429688 L 134.691406 90.429688 L 134.691406 68.515625 L 120.332031 68.515625 Z M 120.332031 67.722656 L 134.691406 67.722656 L 134.691406 45.816406 L 120.332031 45.816406 Z M 142.65625 92.300781 C 142.65625 93.121094 143.320312 93.78125 144.132812 93.78125 L 144.273438 93.78125 C 145.09375 93.78125 145.753906 93.121094 145.753906 92.300781 C 145.753906 91.484375 145.09375 90.824219 144.273438 90.824219 L 144.132812 90.824219 C 143.320312 90.824219 142.65625 91.484375 142.65625 92.300781 Z M 142.65625 85.394531 C 142.65625 86.210938 143.320312 86.875 144.132812 86.875 L 144.273438 86.875 C 145.09375 86.875 145.753906 86.210938 145.753906 85.394531 C 145.753906 84.578125 145.09375 83.914062 144.273438 83.914062 L 144.132812 83.914062 C 143.320312 83.914062 142.65625 84.578125 142.65625 85.394531 Z M 142.65625 78.484375 C 142.65625 79.300781 143.320312 79.960938 144.132812 79.960938 L 144.273438 79.960938 C 145.09375 79.960938 145.753906 79.300781 145.753906 78.484375 C 145.753906 77.667969 145.09375 77.007812 144.273438 77.007812 L 144.132812 77.007812 C 143.320312 77.007812 142.65625 77.667969 142.65625 78.484375 Z M 142.65625 71.574219 C 142.65625 72.390625 143.320312 73.054688 144.132812 73.054688 L 144.273438 73.054688 C 145.09375 73.054688 145.753906 72.390625 145.753906 71.574219 C 145.753906 70.761719 145.09375 70.097656 144.273438 70.097656 L 144.132812 70.097656 C 143.320312 70.097656 142.65625 70.761719 142.65625 71.574219 Z M 142.65625 64.664062 C 142.65625 65.484375 143.320312 66.144531 144.132812 66.144531 L 144.273438 66.144531 C 145.09375 66.144531 145.753906 65.484375 145.753906 64.664062 C 145.753906 63.847656 145.09375 63.1875 144.273438 63.1875 L 144.132812 63.1875 C 143.320312 63.1875 142.65625 63.847656 142.65625 64.664062 Z M 142.65625 57.757812 C 142.65625 58.574219 143.320312 59.238281 144.132812 59.238281 L 144.273438 59.238281 C 145.09375 59.238281 145.753906 58.574219 145.753906 57.757812 C 145.753906 56.941406 145.09375 56.277344 144.273438 56.277344 L 144.132812 56.277344 C 143.320312 56.277344 142.65625 56.941406 142.65625 57.757812 Z M 142.65625 50.851562 C 142.65625 51.664062 143.320312 52.328125 144.132812 52.328125 L 144.273438 52.328125 C 145.09375 52.328125 145.753906 51.664062 145.753906 50.851562 C 145.753906 50.03125 145.09375 49.371094 144.273438 49.371094 L 144.132812 49.371094 C 143.320312 49.371094 142.65625 50.03125 142.65625 50.851562 Z M 142.65625 43.941406 C 142.65625 44.753906 143.320312 45.417969 144.132812 45.417969 L 144.273438 45.417969 C 145.09375 45.417969 145.753906 44.753906 145.753906 43.941406 C 145.753906 43.125 145.09375 42.460938 144.273438 42.460938 L 144.132812 42.460938 C 143.320312 42.460938 142.65625 43.125 142.65625 43.941406 Z M 142.65625 36.019531 C 142.65625 37.164062 143.585938 38.097656 144.730469 38.097656 C 145.878906 38.097656 146.808594 37.164062 146.808594 36.019531 C 146.808594 34.875 145.878906 33.941406 144.730469 33.941406 C 143.585938 33.941406 142.65625 34.875 142.65625 36.019531 Z M 148.941406 92.300781 C 148.941406 93.121094 149.605469 93.78125 150.417969 93.78125 L 162.957031 93.78125 C 163.773438 93.78125 164.433594 93.121094 164.433594 92.300781 C 164.433594 91.484375 163.773438 90.824219 162.957031 90.824219 L 150.417969 90.824219 C 149.605469 90.824219 148.941406 91.484375 148.941406 92.300781 Z M 148.941406 85.394531 C 148.941406 86.210938 149.605469 86.875 150.417969 86.875 L 177.246094 86.875 C 178.058594 86.875 178.722656 86.210938 178.722656 85.394531 C 178.722656 84.578125 178.058594 83.914062 177.246094 83.914062 L 150.417969 83.914062 C 149.605469 83.914062 148.941406 84.578125 148.941406 85.394531 Z M 148.941406 78.484375 C 148.941406 79.300781 149.605469 79.960938 150.417969 79.960938 L 167.613281 79.960938 C 168.429688 79.960938 169.09375 79.300781 169.09375 78.484375 C 169.09375 77.667969 168.429688 77.007812 167.613281 77.007812 L 150.417969 77.007812 C 149.605469 77.007812 148.941406 77.667969 148.941406 78.484375 Z M 148.941406 71.574219 C 148.941406 72.390625 149.605469 73.054688 150.417969 73.054688 L 173.117188 73.054688 C 173.933594 73.054688 174.59375 72.390625 174.59375 71.574219 C 174.59375 70.761719 173.933594 70.097656 173.117188 70.097656 L 150.417969 70.097656 C 149.605469 70.097656 148.941406 70.761719 148.941406 71.574219 Z M 148.941406 64.664062 C 148.941406 65.484375 149.605469 66.144531 150.417969 66.144531 L 180.210938 66.144531 C 181.023438 66.144531 181.683594 65.484375 181.683594 64.664062 C 181.683594 63.847656 181.023438 63.1875 180.210938 63.1875 L 150.417969 63.1875 C 149.605469 63.1875 148.941406 63.847656 148.941406 64.664062 Z M 148.941406 57.757812 C 148.941406 58.574219 149.605469 59.238281 150.417969 59.238281 L 156.5 59.238281 C 157.316406 59.238281 157.980469 58.574219 157.980469 57.757812 C 157.980469 56.941406 157.316406 56.277344 156.5 56.277344 L 150.417969 56.277344 C 149.605469 56.277344 148.941406 56.941406 148.941406 57.757812 Z M 148.941406 50.851562 C 148.941406 51.664062 149.605469 52.328125 150.417969 52.328125 L 170.894531 52.328125 C 171.710938 52.328125 172.375 51.664062 172.375 50.851562 C 172.375 50.03125 171.710938 49.371094 170.894531 49.371094 L 150.417969 49.371094 C 149.605469 49.371094 148.941406 50.03125 148.941406 50.851562 Z M 148.941406 43.941406 C 148.941406 44.753906 149.605469 45.417969 150.417969 45.417969 L 159.820312 45.417969 C 160.636719 45.417969 161.296875 44.753906 161.296875 43.941406 C 161.296875 43.125 160.636719 42.460938 159.820312 42.460938 L 150.417969 42.460938 C 149.605469 42.460938 148.941406 43.125 148.941406 43.941406 Z M 150.519531 36.019531 C 150.519531 37.164062 151.449219 38.097656 152.597656 38.097656 C 153.742188 38.097656 154.671875 37.164062 154.671875 36.019531 C 154.671875 34.875 153.742188 33.941406 152.597656 33.941406 C 151.449219 33.941406 150.519531 34.875 150.519531 36.019531 Z M 193.617188 56.277344 L 163.828125 56.277344 C 163.011719 56.277344 162.351562 56.941406 162.351562 57.757812 C 162.351562 58.574219 163.011719 59.238281 163.828125 59.238281 L 193.617188 59.238281 C 194.433594 59.238281 195.097656 58.574219 195.097656 57.757812 C 195.097656 56.941406 194.433594 56.277344 193.617188 56.277344 Z M 194.25 64.664062 C 194.25 63.847656 193.589844 63.1875 192.773438 63.1875 L 186.691406 63.1875 C 185.878906 63.1875 185.214844 63.847656 185.214844 64.664062 C 185.214844 65.484375 185.878906 66.144531 186.691406 66.144531 L 192.773438 66.144531 C 193.589844 66.144531 194.25 65.484375 194.25 64.664062 Z M 193.507812 78.484375 C 193.507812 77.667969 192.847656 77.007812 192.03125 77.007812 L 185.953125 77.007812 C 185.136719 77.007812 184.472656 77.667969 184.472656 78.484375 C 184.472656 79.300781 185.136719 79.960938 185.953125 79.960938 L 192.03125 79.960938 C 192.847656 79.960938 193.507812 79.300781 193.507812 78.484375 Z M 181.234375 78.484375 C 181.234375 77.667969 180.570312 77.007812 179.753906 77.007812 L 173.671875 77.007812 C 172.855469 77.007812 172.195312 77.667969 172.195312 78.484375 C 172.195312 79.300781 172.855469 79.960938 173.671875 79.960938 L 179.753906 79.960938 C 180.570312 79.960938 181.234375 79.300781 181.234375 78.484375 Z M 187.082031 92.300781 C 187.082031 91.484375 186.421875 90.824219 185.605469 90.824219 L 168.414062 90.824219 C 167.59375 90.824219 166.933594 91.484375 166.933594 92.300781 C 166.933594 93.121094 167.59375 93.78125 168.414062 93.78125 L 185.605469 93.78125 C 186.421875 93.78125 187.082031 93.121094 187.082031 92.300781 Z M 227.773438 90.429688 L 246.566406 90.429688 L 246.566406 68.515625 L 227.773438 68.515625 Z M 227.773438 67.722656 L 246.566406 67.722656 L 246.566406 45.816406 L 227.773438 45.816406 Z M 255.5 89.070312 L 332.9375 89.070312 L 332.9375 49.371094 L 255.5 49.371094 Z M 263.363281 36.019531 C 263.363281 37.164062 264.296875 38.097656 265.441406 38.097656 C 266.589844 38.097656 267.519531 37.164062 267.519531 36.019531 C 267.519531 34.875 266.589844 33.941406 265.441406 33.941406 C 264.296875 33.941406 263.363281 34.875 263.363281 36.019531 Z M 317.640625 93.382812 L 305.355469 93.382812 L 305.355469 94.179688 L 317.640625 94.179688 Z M 317.640625 96.03125 L 312.496094 96.03125 L 312.496094 96.824219 L 317.640625 96.824219 Z M 310.496094 96.824219 L 310.496094 96.03125 L 305.355469 96.03125 L 305.355469 96.824219 Z M 313.433594 98.679688 L 305.355469 98.679688 L 305.355469 99.472656 L 313.433594 99.472656 Z M 292.238281 93.382812 L 279.953125 93.382812 L 279.953125 94.179688 L 292.238281 94.179688 Z M 292.238281 96.03125 L 287.097656 96.03125 L 287.097656 96.824219 L 292.238281 96.824219 Z M 285.09375 96.824219 L 285.09375 96.03125 L 279.953125 96.03125 L 279.953125 96.824219 Z M 288.03125 98.679688 L 279.953125 98.679688 L 279.953125 99.472656 L 288.03125 99.472656 Z M 27.25 106.460938 L 27.25 32.714844 C 27.25 30.523438 29.027344 28.746094 31.21875 28.746094 L 116.363281 28.746094 C 118.554688 28.746094 120.332031 30.523438 120.332031 32.714844 L 120.332031 45.023438 L 134.691406 45.023438 L 134.691406 32.714844 C 134.691406 30.523438 136.46875 28.746094 138.660156 28.746094 L 223.804688 28.746094 C 225.996094 28.746094 227.773438 30.523438 227.773438 32.714844 L 227.773438 45.023438 L 246.566406 45.023438 L 246.566406 32.714844 C 246.566406 30.523438 248.34375 28.746094 250.535156 28.746094 L 335.675781 28.746094 C 337.871094 28.746094 339.644531 30.523438 339.644531 32.714844 L 339.644531 90.429688 L 349.902344 90.429688 C 350.066406 90.6875 350.214844 90.957031 350.367188 91.222656 L 339.644531 91.222656 L 339.644531 106.460938 C 339.644531 108.652344 337.871094 110.429688 335.675781 110.429688 L 250.535156 110.429688 C 248.34375 110.429688 246.566406 108.652344 246.566406 106.460938 L 246.566406 91.222656 L 227.773438 91.222656 L 227.773438 98.199219 C 227.773438 100.394531 225.996094 102.171875 223.804688 102.171875 L 138.660156 102.171875 C 136.46875 102.171875 134.691406 100.394531 134.691406 98.199219 L 134.691406 91.222656 L 120.332031 91.222656 L 120.332031 106.460938 C 120.332031 108.652344 118.554688 110.429688 116.363281 110.429688 L 31.21875 110.429688 C 29.027344 110.429688 27.25 108.652344 27.25 106.460938 Z M 300.546875 127.460938 C 300.109375 127.460938 299.753906 127.820312 299.753906 128.257812 C 299.753906 128.695312 300.109375 129.050781 300.546875 129.050781 L 316.582031 129.050781 C 317.023438 129.050781 317.375 128.695312 317.375 128.257812 C 317.375 127.820312 317.023438 127.460938 316.582031 127.460938 Z M 317.914062 221.230469 C 317.914062 220.792969 317.5625 220.433594 317.121094 220.433594 L 296.078125 220.433594 C 295.640625 220.433594 295.285156 220.792969 295.285156 221.230469 C 295.285156 221.667969 295.640625 222.023438 296.078125 222.023438 L 317.121094 222.023438 C 317.5625 222.023438 317.914062 221.667969 317.914062 221.230469 Z M 309.121094 236.792969 C 309.121094 236.351562 308.769531 236 308.328125 236 L 277.972656 236 C 277.535156 236 277.179688 236.351562 277.179688 236.792969 C 277.179688 237.230469 277.535156 237.585938 277.972656 237.585938 L 308.328125 237.585938 C 308.769531 237.585938 309.121094 237.230469 309.121094 236.792969 Z M 308.46875 241.980469 C 308.46875 241.542969 308.117188 241.1875 307.675781 241.1875 L 277.320312 241.1875 C 276.882812 241.1875 276.527344 241.542969 276.527344 241.980469 C 276.527344 242.421875 276.882812 242.773438 277.320312 242.773438 L 307.675781 242.773438 C 308.117188 242.773438 308.46875 242.421875 308.46875 241.980469 Z M 278.480469 226.414062 C 278.480469 226.855469 278.839844 227.210938 279.273438 227.210938 L 303.804688 227.210938 C 304.242188 227.210938 304.601562 226.855469 304.601562 226.414062 C 304.601562 225.976562 304.242188 225.621094 303.804688 225.621094 L 279.273438 225.621094 C 278.839844 225.621094 278.480469 225.976562 278.480469 226.414062 Z M 279.136719 221.230469 C 279.136719 221.667969 279.488281 222.023438 279.929688 222.023438 L 290.449219 222.023438 C 290.886719 222.023438 291.246094 221.667969 291.246094 221.230469 C 291.246094 220.792969 290.886719 220.433594 290.449219 220.433594 L 279.929688 220.433594 C 279.488281 220.433594 279.136719 220.792969 279.136719 221.230469 Z M 279.785156 216.042969 C 279.785156 216.480469 280.140625 216.835938 280.582031 216.835938 L 310.933594 216.835938 C 311.375 216.835938 311.730469 216.480469 311.730469 216.042969 C 311.730469 215.601562 311.375 215.25 310.933594 215.25 L 280.582031 215.25 C 280.140625 215.25 279.785156 215.601562 279.785156 216.042969 Z M 273.945312 216.042969 C 273.945312 215.601562 273.589844 215.25 273.152344 215.25 L 267.859375 215.25 C 267.421875 215.25 267.0625 215.601562 267.0625 216.042969 C 267.0625 216.480469 267.421875 216.835938 267.859375 216.835938 L 273.152344 216.835938 C 273.589844 216.835938 273.945312 216.480469 273.945312 216.042969 Z M 273.289062 221.230469 C 273.289062 220.792969 272.9375 220.433594 272.496094 220.433594 L 267.207031 220.433594 C 266.765625 220.433594 266.414062 220.792969 266.414062 221.230469 C 266.414062 221.667969 266.765625 222.023438 267.207031 222.023438 L 272.496094 222.023438 C 272.9375 222.023438 273.289062 221.667969 273.289062 221.230469 Z M 272.640625 226.414062 C 272.640625 225.976562 272.285156 225.621094 271.847656 225.621094 L 266.550781 225.621094 C 266.117188 225.621094 265.757812 225.976562 265.757812 226.414062 C 265.757812 226.855469 266.117188 227.210938 266.550781 227.210938 L 271.847656 227.210938 C 272.285156 227.210938 272.640625 226.855469 272.640625 226.414062 Z M 271.335938 236.792969 C 271.335938 236.351562 270.980469 236 270.542969 236 L 265.25 236 C 264.8125 236 264.457031 236.351562 264.457031 236.792969 C 264.457031 237.230469 264.8125 237.585938 265.25 237.585938 L 270.542969 237.585938 C 270.980469 237.585938 271.335938 237.230469 271.335938 236.792969 Z M 270.6875 241.980469 C 270.6875 241.542969 270.328125 241.1875 269.890625 241.1875 L 264.597656 241.1875 C 264.160156 241.1875 263.804688 241.542969 263.804688 241.980469 C 263.804688 242.421875 264.160156 242.773438 264.597656 242.773438 L 269.890625 242.773438 C 270.328125 242.773438 270.6875 242.421875 270.6875 241.980469 Z M 328.414062 212.851562 L 324.046875 247.585938 L 314.519531 247.585938 C 314.601562 247.464844 314.65625 247.324219 314.65625 247.167969 C 314.65625 246.726562 314.300781 246.375 313.863281 246.375 L 292.820312 246.375 C 292.382812 246.375 292.027344 246.726562 292.027344 247.167969 C 292.027344 247.324219 292.082031 247.464844 292.164062 247.585938 L 287.847656 247.585938 C 287.925781 247.464844 287.984375 247.324219 287.984375 247.167969 C 287.984375 246.726562 287.628906 246.375 287.191406 246.375 L 276.667969 246.375 C 276.230469 246.375 275.875 246.726562 275.875 247.167969 C 275.875 247.324219 275.933594 247.464844 276.011719 247.585938 L 269.894531 247.585938 C 269.976562 247.464844 270.03125 247.324219 270.03125 247.167969 C 270.03125 246.726562 269.679688 246.375 269.238281 246.375 L 263.949219 246.375 C 263.507812 246.375 263.152344 246.726562 263.152344 247.167969 C 263.152344 247.324219 263.210938 247.464844 263.289062 247.585938 L 258.070312 247.585938 L 262.4375 212.851562 C 262.714844 210.660156 264.714844 208.882812 266.90625 208.882812 L 324.945312 208.882812 C 327.132812 208.882812 328.691406 210.660156 328.414062 212.851562 Z M 215.726562 224.488281 L 209.679688 224.488281 C 208.84375 224.488281 208.085938 225.164062 207.984375 226 C 207.878906 226.832031 208.46875 227.507812 209.300781 227.507812 L 215.347656 227.507812 C 216.183594 227.507812 216.941406 226.832031 217.046875 226 C 217.148438 225.164062 216.5625 224.488281 215.726562 224.488281 Z M 201.46875 224.488281 L 195.421875 224.488281 C 194.589844 224.488281 193.828125 225.164062 193.722656 226 C 193.621094 226.832031 194.210938 227.507812 195.042969 227.507812 L 201.089844 227.507812 C 201.921875 227.507812 202.683594 226.832031 202.789062 226 C 202.890625 225.164062 202.304688 224.488281 201.46875 224.488281 Z M 191.109375 211.800781 C 190.460938 211.800781 189.867188 212.328125 189.789062 212.976562 C 189.707031 213.625 190.167969 214.152344 190.8125 214.152344 C 191.460938 214.152344 192.054688 213.625 192.136719 212.976562 C 192.21875 212.328125 191.757812 211.800781 191.109375 211.800781 Z M 195.261719 214.152344 C 195.910156 214.152344 196.5 213.625 196.582031 212.976562 C 196.664062 212.328125 196.203125 211.800781 195.554688 211.800781 C 194.90625 211.800781 194.316406 212.328125 194.234375 212.976562 C 194.152344 213.625 194.613281 214.152344 195.261719 214.152344 Z M 199.703125 214.152344 C 200.351562 214.152344 200.945312 213.625 201.023438 212.976562 C 201.109375 212.328125 200.648438 211.800781 200 211.800781 C 199.351562 211.800781 198.761719 212.328125 198.679688 212.976562 C 198.597656 213.625 199.054688 214.152344 199.703125 214.152344 Z M 212.066406 219.089844 L 200.238281 219.089844 C 199.800781 219.089844 199.445312 219.445312 199.445312 219.882812 C 199.445312 220.324219 199.800781 220.675781 200.238281 220.675781 L 212.066406 220.675781 C 212.507812 220.675781 212.859375 220.324219 212.859375 219.882812 C 212.859375 219.445312 212.507812 219.089844 212.066406 219.089844 Z M 224.082031 208.871094 C 226.277344 208.871094 227.832031 210.652344 227.554688 212.84375 L 225.890625 226.078125 C 225.617188 228.269531 223.613281 230.046875 221.425781 230.046875 L 187.714844 230.046875 C 185.523438 230.046875 183.96875 228.269531 184.246094 226.078125 L 185.910156 212.84375 C 186.183594 210.652344 188.183594 208.871094 190.378906 208.871094 Z M 206.152344 139.898438 C 206.238281 139.25 205.777344 138.722656 205.128906 138.722656 C 204.484375 138.722656 203.890625 139.25 203.808594 139.898438 C 203.726562 140.546875 204.183594 141.070312 204.832031 141.070312 C 205.480469 141.070312 206.074219 140.546875 206.152344 139.898438 Z M 248.0625 197.617188 C 248.0625 197.175781 247.707031 196.820312 247.269531 196.820312 L 243.210938 196.820312 C 242.773438 196.820312 242.417969 197.175781 242.417969 197.617188 C 242.417969 198.054688 242.773438 198.410156 243.210938 198.410156 L 247.269531 198.410156 C 247.707031 198.410156 248.0625 198.054688 248.0625 197.617188 Z M 242.246094 156.855469 C 242.683594 156.855469 243.039062 156.5 243.039062 156.0625 C 243.039062 155.621094 242.683594 155.269531 242.246094 155.269531 L 230.425781 155.269531 C 229.992188 155.269531 229.632812 155.621094 229.632812 156.0625 C 229.632812 156.5 229.992188 156.855469 230.425781 156.855469 Z M 239.945312 163.011719 L 211.191406 163.011719 C 210.019531 163.011719 208.953125 163.960938 208.808594 165.132812 L 207.9375 172.050781 C 207.792969 173.214844 208.621094 174.164062 209.789062 174.164062 L 238.542969 174.164062 C 239.710938 174.164062 240.777344 173.214844 240.925781 172.050781 L 241.792969 165.132812 C 241.941406 163.960938 241.109375 163.011719 239.945312 163.011719 Z M 227.539062 194.597656 L 231.59375 194.597656 C 232.03125 194.597656 232.386719 194.242188 232.386719 193.804688 C 232.386719 193.363281 232.03125 193.011719 231.59375 193.011719 L 227.539062 193.011719 C 227.097656 193.011719 226.742188 193.363281 226.742188 193.804688 C 226.742188 194.242188 227.097656 194.597656 227.539062 194.597656 Z M 234.484375 197.617188 C 234.484375 197.175781 234.125 196.820312 233.691406 196.820312 L 227.058594 196.820312 C 226.621094 196.820312 226.261719 197.175781 226.261719 197.617188 C 226.261719 198.054688 226.621094 198.410156 227.058594 198.410156 L 233.691406 198.410156 C 234.125 198.410156 234.484375 198.054688 234.484375 197.617188 Z M 220.757812 193.804688 C 220.757812 193.363281 220.398438 193.011719 219.960938 193.011719 L 212.878906 193.011719 C 212.441406 193.011719 212.085938 193.363281 212.085938 193.804688 C 212.085938 194.242188 212.441406 194.597656 212.878906 194.597656 L 219.960938 194.597656 C 220.398438 194.597656 220.757812 194.242188 220.757812 193.804688 Z M 217.253906 197.617188 C 217.253906 197.175781 216.894531 196.820312 216.457031 196.820312 L 212.398438 196.820312 C 211.960938 196.820312 211.605469 197.175781 211.605469 197.617188 C 211.605469 198.054688 211.960938 198.410156 212.398438 198.410156 L 216.457031 198.410156 C 216.894531 198.410156 217.253906 198.054688 217.253906 197.617188 Z M 204.742188 193.804688 C 204.742188 193.363281 204.390625 193.011719 203.949219 193.011719 L 195.835938 193.011719 C 195.398438 193.011719 195.042969 193.363281 195.042969 193.804688 C 195.042969 194.242188 195.398438 194.597656 195.835938 194.597656 L 203.949219 194.597656 C 204.390625 194.597656 204.742188 194.242188 204.742188 193.804688 Z M 201.023438 197.617188 C 201.023438 197.175781 200.667969 196.820312 200.230469 196.820312 L 195.359375 196.820312 C 194.917969 196.820312 194.566406 197.175781 194.566406 197.617188 C 194.566406 198.054688 194.917969 198.410156 195.359375 198.410156 L 200.230469 198.410156 C 200.667969 198.410156 201.023438 198.054688 201.023438 197.617188 Z M 209.152344 156.0625 C 209.152344 156.5 209.507812 156.855469 209.945312 156.855469 L 224.9375 156.855469 C 225.378906 156.855469 225.734375 156.5 225.734375 156.0625 C 225.734375 155.621094 225.378906 155.269531 224.9375 155.269531 L 209.945312 155.269531 C 209.507812 155.269531 209.152344 155.621094 209.152344 156.0625 Z M 242.894531 193.804688 C 242.894531 194.242188 243.253906 194.597656 243.691406 194.597656 L 250.773438 194.597656 C 251.210938 194.597656 251.566406 194.242188 251.566406 193.804688 C 251.566406 193.363281 251.210938 193.011719 250.773438 193.011719 L 243.691406 193.011719 C 243.253906 193.011719 242.894531 193.363281 242.894531 193.804688 Z M 249.554688 203.070312 L 191.515625 203.070312 C 189.324219 203.070312 187.769531 201.292969 188.046875 199.097656 L 194.753906 145.683594 L 260.730469 145.683594 L 261.6875 138.082031 L 254.019531 199.097656 C 253.746094 201.292969 251.746094 203.070312 249.554688 203.070312 Z M 338.425781 241.957031 L 330.417969 241.957031 C 329.980469 241.957031 329.625 242.316406 329.625 242.753906 C 329.625 243.1875 329.980469 243.546875 330.417969 243.546875 L 338.425781 243.546875 C 338.863281 243.546875 339.222656 243.1875 339.222656 242.753906 C 339.222656 242.316406 338.863281 241.957031 338.425781 241.957031 Z M 342.339844 236.769531 L 331.070312 236.769531 C 330.632812 236.769531 330.277344 237.125 330.277344 237.5625 C 330.277344 238.003906 330.632812 238.355469 331.070312 238.355469 L 342.339844 238.355469 C 342.78125 238.355469 343.132812 238.003906 343.132812 237.5625 C 343.132812 237.125 342.78125 236.769531 342.339844 236.769531 Z M 331.722656 233.171875 L 338.410156 233.171875 C 338.847656 233.171875 339.207031 232.8125 339.207031 232.375 C 339.207031 231.941406 338.847656 231.582031 338.410156 231.582031 L 331.722656 231.582031 C 331.28125 231.582031 330.929688 231.941406 330.929688 232.375 C 330.929688 232.8125 331.28125 233.171875 331.722656 233.171875 Z M 346.222656 172.984375 L 338.214844 172.984375 C 337.777344 172.984375 337.421875 173.339844 337.421875 173.777344 C 337.421875 174.21875 337.777344 174.570312 338.214844 174.570312 L 346.222656 174.570312 C 346.660156 174.570312 347.015625 174.21875 347.015625 173.777344 C 347.015625 173.339844 346.660156 172.984375 346.222656 172.984375 Z M 350.136719 167.796875 L 338.867188 167.796875 C 338.425781 167.796875 338.074219 168.148438 338.074219 168.589844 C 338.074219 169.027344 338.425781 169.382812 338.867188 169.382812 L 350.136719 169.382812 C 350.578125 169.382812 350.929688 169.027344 350.929688 168.589844 C 350.929688 168.148438 350.578125 167.796875 350.136719 167.796875 Z M 339.519531 162.605469 C 339.082031 162.605469 338.726562 162.964844 338.726562 163.402344 C 338.726562 163.839844 339.082031 164.195312 339.519531 164.195312 L 346.207031 164.195312 C 346.648438 164.195312 347 163.839844 347 163.402344 C 347 162.964844 346.648438 162.605469 346.207031 162.605469 Z M 327.40625 145.683594 C 327.40625 145.246094 327.054688 144.890625 326.613281 144.890625 L 313.238281 144.890625 C 312.796875 144.890625 312.445312 145.246094 312.445312 145.683594 C 312.445312 146.125 312.796875 146.476562 313.238281 146.476562 L 326.613281 146.476562 C 327.054688 146.476562 327.40625 146.125 327.40625 145.683594 Z M 320.707031 156.0625 C 320.707031 155.621094 320.355469 155.269531 319.914062 155.269531 L 308.226562 155.269531 C 307.789062 155.269531 307.433594 155.621094 307.433594 156.0625 C 307.433594 156.5 307.789062 156.855469 308.226562 156.855469 L 319.914062 156.855469 C 320.355469 156.855469 320.707031 156.5 320.707031 156.0625 Z M 317.449219 182 C 317.449219 181.5625 317.097656 181.203125 316.65625 181.203125 L 304.96875 181.203125 C 304.53125 181.203125 304.175781 181.5625 304.175781 182 C 304.175781 182.441406 304.53125 182.792969 304.96875 182.792969 L 316.65625 182.792969 C 317.097656 182.792969 317.449219 182.441406 317.449219 182 Z M 311.648438 187.1875 C 311.648438 186.746094 311.292969 186.394531 310.855469 186.394531 L 296.734375 186.394531 C 296.292969 186.394531 295.9375 186.746094 295.9375 187.1875 C 295.9375 187.625 296.292969 187.980469 296.734375 187.980469 L 310.855469 187.980469 C 311.292969 187.980469 311.648438 187.625 311.648438 187.1875 Z M 303.644531 192.375 C 303.644531 191.9375 303.289062 191.582031 302.851562 191.582031 L 283.554688 191.582031 C 283.113281 191.582031 282.761719 191.9375 282.761719 192.375 C 282.761719 192.816406 283.113281 193.167969 283.554688 193.167969 L 302.851562 193.167969 C 303.289062 193.167969 303.644531 192.816406 303.644531 192.375 Z M 282.78125 145.683594 C 282.78125 145.246094 282.429688 144.890625 281.988281 144.890625 L 276.699219 144.890625 C 276.261719 144.890625 275.90625 145.246094 275.90625 145.683594 C 275.90625 146.125 276.261719 146.476562 276.699219 146.476562 L 281.988281 146.476562 C 282.429688 146.476562 282.78125 146.125 282.78125 145.683594 Z M 282.132812 150.875 C 282.132812 150.4375 281.777344 150.078125 281.335938 150.078125 L 276.046875 150.078125 C 275.605469 150.078125 275.253906 150.4375 275.253906 150.875 C 275.253906 151.3125 275.605469 151.667969 276.046875 151.667969 L 281.335938 151.667969 C 281.777344 151.667969 282.132812 151.3125 282.132812 150.875 Z M 281.480469 156.0625 C 281.480469 155.621094 281.125 155.269531 280.6875 155.269531 L 275.394531 155.269531 C 274.957031 155.269531 274.601562 155.621094 274.601562 156.0625 C 274.601562 156.5 274.957031 156.855469 275.394531 156.855469 L 280.6875 156.855469 C 281.125 156.855469 281.480469 156.5 281.480469 156.0625 Z M 280.828125 161.25 C 280.828125 160.8125 280.472656 160.453125 280.035156 160.453125 L 274.742188 160.453125 C 274.304688 160.453125 273.949219 160.8125 273.949219 161.25 C 273.949219 161.6875 274.304688 162.042969 274.742188 162.042969 L 280.035156 162.042969 C 280.472656 162.042969 280.828125 161.6875 280.828125 161.25 Z M 280.175781 166.4375 C 280.175781 165.996094 279.820312 165.644531 279.382812 165.644531 L 274.089844 165.644531 C 273.652344 165.644531 273.296875 165.996094 273.296875 166.4375 C 273.296875 166.875 273.652344 167.230469 274.089844 167.230469 L 279.382812 167.230469 C 279.820312 167.230469 280.175781 166.875 280.175781 166.4375 Z M 278.871094 176.8125 C 278.871094 176.371094 278.519531 176.019531 278.078125 176.019531 L 272.789062 176.019531 C 272.347656 176.019531 271.996094 176.371094 271.996094 176.8125 C 271.996094 177.25 272.347656 177.605469 272.789062 177.605469 L 278.078125 177.605469 C 278.519531 177.605469 278.871094 177.25 278.871094 176.8125 Z M 278.222656 182 C 278.222656 181.5625 277.863281 181.203125 277.425781 181.203125 L 272.132812 181.203125 C 271.695312 181.203125 271.339844 181.5625 271.339844 182 C 271.339844 182.441406 271.695312 182.792969 272.132812 182.792969 L 277.425781 182.792969 C 277.863281 182.792969 278.222656 182.441406 278.222656 182 Z M 277.570312 187.1875 C 277.570312 186.746094 277.214844 186.394531 276.777344 186.394531 L 271.484375 186.394531 C 271.046875 186.394531 270.6875 186.746094 270.6875 187.1875 C 270.6875 187.625 271.046875 187.980469 271.484375 187.980469 L 276.777344 187.980469 C 277.214844 187.980469 277.570312 187.625 277.570312 187.1875 Z M 276.917969 192.375 C 276.917969 191.9375 276.5625 191.582031 276.125 191.582031 L 270.832031 191.582031 C 270.394531 191.582031 270.039062 191.9375 270.039062 192.375 C 270.039062 192.816406 270.394531 193.167969 270.832031 193.167969 L 276.125 193.167969 C 276.5625 193.167969 276.917969 192.816406 276.917969 192.375 Z M 283.410156 187.1875 C 283.410156 187.625 283.769531 187.980469 284.207031 187.980469 L 292.210938 187.980469 C 292.648438 187.980469 293.007812 187.625 293.007812 187.1875 C 293.007812 186.746094 292.648438 186.394531 292.210938 186.394531 L 284.207031 186.394531 C 283.769531 186.394531 283.410156 186.746094 283.410156 187.1875 Z M 284.0625 182 C 284.0625 182.441406 284.417969 182.792969 284.855469 182.792969 L 300.449219 182.792969 C 300.886719 182.792969 301.246094 182.441406 301.246094 182 C 301.246094 181.5625 300.886719 181.203125 300.449219 181.203125 L 284.855469 181.203125 C 284.417969 181.203125 284.0625 181.5625 284.0625 182 Z M 284.714844 176.8125 C 284.714844 177.25 285.070312 177.605469 285.507812 177.605469 L 292.195312 177.605469 C 292.636719 177.605469 292.992188 177.25 292.992188 176.8125 C 292.992188 176.371094 292.636719 176.019531 292.195312 176.019531 L 285.507812 176.019531 C 285.070312 176.019531 284.714844 176.371094 284.714844 176.8125 Z M 286.019531 166.4375 C 286.019531 166.875 286.375 167.230469 286.8125 167.230469 L 296.460938 167.230469 C 296.902344 167.230469 297.253906 166.875 297.253906 166.4375 C 297.253906 165.996094 296.902344 165.644531 296.460938 165.644531 L 286.8125 165.644531 C 286.375 165.644531 286.019531 165.996094 286.019531 166.4375 Z M 286.671875 161.25 C 286.671875 161.6875 287.027344 162.042969 287.464844 162.042969 L 295.472656 162.042969 C 295.910156 162.042969 296.265625 161.6875 296.265625 161.25 C 296.265625 160.8125 295.910156 160.453125 295.472656 160.453125 L 287.464844 160.453125 C 287.027344 160.453125 286.671875 160.8125 286.671875 161.25 Z M 287.320312 156.0625 C 287.320312 156.5 287.679688 156.855469 288.117188 156.855469 L 303.710938 156.855469 C 304.148438 156.855469 304.503906 156.5 304.503906 156.0625 C 304.503906 155.621094 304.148438 155.269531 303.710938 155.269531 L 288.117188 155.269531 C 287.679688 155.269531 287.320312 155.621094 287.320312 156.0625 Z M 287.972656 150.875 C 287.972656 151.3125 288.328125 151.667969 288.765625 151.667969 L 295.457031 151.667969 C 295.894531 151.667969 296.25 151.3125 296.25 150.875 C 296.25 150.4375 295.894531 150.078125 295.457031 150.078125 L 288.765625 150.078125 C 288.328125 150.078125 287.972656 150.4375 287.972656 150.875 Z M 288.628906 145.683594 C 288.628906 146.125 288.980469 146.476562 289.421875 146.476562 L 308.71875 146.476562 C 309.15625 146.476562 309.511719 146.125 309.511719 145.683594 C 309.511719 145.246094 309.15625 144.890625 308.71875 144.890625 L 289.421875 144.890625 C 288.980469 144.890625 288.628906 145.246094 288.628906 145.683594 Z M 312.410156 151.667969 C 312.851562 151.667969 313.203125 151.3125 313.203125 150.875 C 313.203125 150.4375 312.851562 150.078125 312.410156 150.078125 L 299.035156 150.078125 C 298.597656 150.078125 298.238281 150.4375 298.238281 150.875 C 298.238281 151.3125 298.597656 151.667969 299.035156 151.667969 Z M 306.089844 161.25 C 306.089844 160.8125 305.730469 160.453125 305.292969 160.453125 L 299.992188 160.453125 C 299.550781 160.453125 299.199219 160.8125 299.199219 161.25 C 299.199219 161.6875 299.550781 162.042969 299.992188 162.042969 L 305.292969 162.042969 C 305.730469 162.042969 306.089844 161.6875 306.089844 161.25 Z M 309.152344 176.019531 L 295.773438 176.019531 C 295.335938 176.019531 294.980469 176.371094 294.980469 176.8125 C 294.980469 177.25 295.335938 177.605469 295.773438 177.605469 L 309.152344 177.605469 C 309.59375 177.605469 309.945312 177.25 309.945312 176.8125 C 309.945312 176.371094 309.59375 176.019531 309.152344 176.019531 Z M 313.761719 167.230469 C 314.195312 167.230469 314.554688 166.875 314.554688 166.4375 C 314.554688 165.996094 314.195312 165.644531 313.761719 165.644531 L 299.929688 165.644531 C 299.492188 165.644531 299.136719 165.996094 299.136719 166.4375 C 299.136719 166.875 299.492188 167.230469 299.929688 167.230469 Z M 330.140625 199.097656 C 329.867188 201.292969 327.867188 203.070312 325.671875 203.070312 L 267.632812 203.070312 C 265.441406 203.070312 263.890625 201.292969 264.164062 199.097656 L 271.832031 138.082031 C 272.105469 135.890625 274.109375 134.113281 276.296875 134.113281 L 334.335938 134.113281 C 336.53125 134.113281 338.082031 135.890625 337.808594 138.082031 Z M 122.65625 158.535156 L 121.917969 152.441406 C 121.207031 146.527344 122.949219 140.9375 126.292969 136.625 L 93.777344 136.625 L 93.777344 158.445312 C 93.777344 158.476562 93.769531 158.503906 93.769531 158.535156 Z M 87.117188 135.890625 L 79.25 135.890625 L 79.25 154.921875 L 87.117188 154.921875 Z M 75.261719 136.625 L 75.261719 133.511719 L 67.398438 133.511719 L 67.398438 154.921875 L 75.261719 154.921875 Z M 63.40625 138.75 L 55.542969 138.75 L 55.542969 154.921875 L 63.40625 154.921875 Z M 51.550781 148.308594 L 43.6875 148.308594 L 43.6875 154.921875 L 51.550781 154.921875 Z M 39.695312 144.941406 L 31.832031 144.941406 L 31.832031 154.921875 L 39.695312 154.921875 Z M 120.050781 182.03125 L 0.351562 182.03125 C 0.335938 181.765625 0.3125 181.5 0.296875 181.234375 L 120.273438 181.234375 L 122.449219 173.566406 C 123.386719 170.257812 123.65625 166.804688 123.242188 163.390625 L 122.753906 159.328125 L 93.671875 159.328125 C 93.265625 161.09375 91.695312 162.414062 89.808594 162.414062 L 31.21875 162.414062 C 29.332031 162.414062 27.757812 161.09375 27.355469 159.328125 L 0.585938 159.328125 C 0.609375 159.0625 0.640625 158.796875 0.667969 158.535156 L 27.257812 158.535156 C 27.257812 158.503906 27.25 158.476562 27.25 158.445312 L 27.25 136.625 L 4.816406 136.625 C 4.890625 136.359375 4.972656 136.097656 5.050781 135.832031 L 27.25 135.832031 L 27.25 127.699219 C 27.25 125.507812 29.027344 123.730469 31.21875 123.730469 L 89.808594 123.730469 C 92 123.730469 93.777344 125.507812 93.777344 127.699219 L 93.777344 135.832031 L 126.941406 135.832031 C 130.882812 131.222656 136.730469 128.257812 143.351562 128.257812 C 149.886719 128.257812 155.792969 131.175781 159.773438 135.832031 L 180.671875 135.832031 L 180.585938 136.625 L 160.417969 136.625 C 162.816406 139.71875 164.402344 143.488281 164.824219 147.636719 L 165.042969 149.734375 L 169.5625 158.535156 L 178.15625 158.535156 L 178.066406 159.328125 L 169.855469 159.328125 C 169.875 159.832031 169.5625 160.316406 169.035156 160.46875 L 167.261719 160.992188 C 166.746094 161.140625 166.40625 161.628906 166.449219 162.167969 C 166.71875 165.699219 167.515625 178.296875 165.042969 179.628906 C 162.164062 181.179688 148.425781 178.402344 148.425781 178.402344 C 148.164062 179.335938 147.949219 180.285156 147.769531 181.234375 L 175.636719 181.234375 L 175.550781 182.03125 L 147.636719 182.03125 C 147.148438 184.976562 147.027344 187.96875 147.28125 190.941406 C 144.203125 189.890625 140.085938 188.277344 133.6875 186.972656 C 127.554688 185.726562 121.640625 187.136719 118.285156 188.253906 Z M 102.050781 245.96875 C 101.074219 239.800781 99.785156 233.433594 98.175781 227.4375 L 98.179688 227.4375 C 98.152344 227.332031 98.125 227.226562 98.09375 227.125 C 97.519531 225.003906 96.90625 222.925781 96.246094 220.925781 C 94.050781 214.238281 96.140625 207.441406 100.691406 203.050781 C 100.472656 203.148438 100.246094 203.238281 100.03125 203.34375 C 99.660156 203.53125 99.304688 203.734375 98.953125 203.9375 L 3.375 203.9375 C 3.433594 204.203125 3.484375 204.46875 3.542969 204.730469 L 97.734375 204.730469 C 90.867188 209.660156 88.652344 219.097656 92.898438 226.640625 L 9.625 226.640625 C 9.714844 226.90625 9.796875 227.171875 9.890625 227.4375 L 93.34375 227.4375 Z M 176.496094 363.363281 C 179.734375 363.363281 182.980469 363.1875 186.230469 362.855469 L 165.464844 362.855469 C 169.128906 363.179688 172.808594 363.363281 176.496094 363.363281 Z M 132.007812 340.179688 C 131.238281 340.179688 130.488281 340.171875 129.75 340.15625 L 99.996094 340.15625 C 100.433594 340.421875 100.875 340.683594 101.3125 340.949219 L 244.054688 340.949219 C 244.464844 340.683594 244.871094 340.417969 245.277344 340.15625 L 132.972656 340.15625 C 132.648438 340.15625 132.339844 340.179688 132.007812 340.179688 Z M 100.492188 317.449219 L 69.902344 317.449219 C 70.195312 317.71875 70.484375 317.980469 70.777344 318.242188 L 100.539062 318.242188 C 100.523438 317.980469 100.507812 317.71875 100.492188 317.449219 Z M 167.550781 318.242188 L 273.191406 318.242188 C 273.476562 317.980469 273.761719 317.71875 274.046875 317.449219 L 167.832031 317.449219 C 167.742188 317.710938 167.652344 317.972656 167.550781 318.242188 Z M 101.117188 294.75 L 48.257812 294.75 C 48.480469 295.015625 48.707031 295.277344 48.929688 295.542969 L 101.039062 295.542969 C 101.0625 295.277344 101.089844 295.011719 101.117188 294.75 Z M 104.414062 272.042969 L 31.710938 272.042969 C 31.878906 272.3125 32.050781 272.574219 32.222656 272.839844 L 104.414062 272.839844 C 104.414062 272.582031 104.414062 272.316406 104.414062 272.042969 Z M 226.730469 283.433594 C 228.59375 283.734375 230.421875 284.023438 232.191406 284.292969 L 231.992188 283.980469 L 227.28125 282.980469 Z M 268.226562 294.75 L 280.175781 294.75 L 276.394531 292.113281 L 269.636719 293.65625 Z M 176.5625 249.34375 L 327.96875 249.34375 C 327.8125 249.605469 327.660156 249.875 327.507812 250.136719 L 176.964844 250.136719 C 181.996094 259.882812 186.605469 267.984375 189.386719 272.042969 L 313.398438 272.042969 C 313.210938 272.3125 313.023438 272.574219 312.839844 272.839844 L 189.945312 272.839844 C 190.667969 273.84375 191.234375 274.5 191.605469 274.746094 C 194.554688 276.710938 201.84375 278.683594 210.359375 280.453125 L 223.867188 275.355469 C 225.246094 274.835938 226.789062 275.011719 228.015625 275.832031 L 234.6875 280.292969 L 237.472656 285.082031 C 242.683594 285.835938 246.964844 286.398438 249.347656 286.703125 L 256.746094 286.425781 L 272.605469 280.941406 C 274.027344 280.453125 275.605469 280.675781 276.832031 281.550781 L 283.515625 286.296875 L 288.117188 294.75 L 295.78125 294.75 C 295.554688 295.011719 295.328125 295.277344 295.101562 295.542969 L 288.546875 295.542969 L 288.703125 295.828125 C 288.996094 296.371094 288.773438 297.050781 288.210938 297.308594 C 287.09375 297.230469 285.8125 296.671875 284.769531 295.894531 L 285.039062 297.71875 C 285.164062 298.554688 284.480469 299.292969 283.640625 299.230469 C 282.328125 299.136719 281.25 298.164062 281.023438 296.867188 L 280.792969 295.542969 L 267.199219 295.542969 L 263.949219 298.058594 C 262.417969 299.238281 260.636719 300.03125 258.753906 300.375 C 257.527344 300.597656 256.265625 300.5625 255.03125 300.394531 L 247.53125 299.359375 L 191.695312 298.960938 C 184.953125 298.679688 179.988281 297.398438 176.210938 295.542969 L 161.96875 295.542969 C 161.929688 295.414062 161.890625 295.289062 161.855469 295.15625 L 161.851562 295.15625 C 161.820312 295.054688 161.789062 294.949219 161.757812 294.839844 C 161.75 294.8125 161.742188 294.78125 161.730469 294.75 L 161.734375 294.75 C 160.539062 290.699219 159.679688 286.5 159.679688 282.789062 C 159.679688 280.675781 159.996094 278.449219 160.503906 276.140625 C 160.632812 276.167969 160.765625 276.191406 160.898438 276.214844 L 152.523438 260.042969 C 152.085938 260.136719 151.636719 260.1875 151.175781 260.1875 C 147.007812 260.1875 142.898438 256.277344 139.808594 250.136719 L 19.398438 250.136719 C 19.273438 249.875 19.136719 249.609375 19.007812 249.34375 L 139.421875 249.34375 C 137.152344 244.558594 135.488281 238.546875 134.851562 232.003906 C 134.339844 226.757812 134.550781 221.851562 135.34375 217.648438 C 135.28125 212.148438 136.761719 207.347656 140.863281 205.433594 C 141.191406 205.28125 141.523438 205.160156 141.851562 205.03125 C 143.023438 204.246094 144.300781 203.824219 145.671875 203.824219 C 146.230469 203.824219 146.785156 203.898438 147.335938 204.035156 C 152.835938 204.15625 157.726562 207.667969 160.042969 213.496094 C 164.675781 225.152344 170.855469 238.25 176.554688 249.34375 Z M 170.519531 227.4375 L 170.605469 226.640625 L 167.429688 226.640625 C 167.519531 226.90625 167.609375 227.171875 167.699219 227.4375 Z M 173.125 203.9375 L 157.574219 203.9375 C 157.667969 204.101562 157.757812 204.261719 157.84375 204.425781 C 157.890625 204.527344 157.945312 204.632812 157.996094 204.730469 L 173.035156 204.730469 Z M 359.367188 113.128906 L 14.433594 113.128906 C 14.292969 113.394531 14.152344 113.660156 14.011719 113.921875 L 359.558594 113.921875 C 359.496094 113.660156 359.433594 113.394531 359.367188 113.128906 " fill-opacity="1" fill-rule="nonzero"/></g><g clip-path="url(#clip-3)"><path fill="rgb(22.349548%, 22.749329%, 24.708557%)" d="M 272.957031 274.496094 L 250.597656 274.5625 L 239.421875 274.601562 L 228.242188 274.710938 L 228.242188 275.070312 L 239.421875 275.179688 L 250.597656 275.21875 L 272.957031 275.285156 L 295.316406 275.203125 L 306.496094 275.160156 L 317.675781 275.042969 L 317.675781 274.738281 L 306.496094 274.625 L 295.316406 274.578125 Z M 263.582031 98.679688 L 255.503906 98.679688 L 255.503906 99.472656 L 263.582031 99.472656 Z M 267.789062 96.824219 L 267.789062 96.03125 L 262.648438 96.03125 L 262.648438 96.824219 Z M 260.644531 96.03125 L 255.503906 96.03125 L 255.503906 96.824219 L 260.644531 96.824219 Z M 267.789062 93.382812 L 255.503906 93.382812 L 255.503906 94.179688 L 267.789062 94.179688 Z M 273.304688 38.097656 C 274.453125 38.097656 275.382812 37.164062 275.382812 36.019531 C 275.382812 34.875 274.453125 33.941406 273.304688 33.941406 C 272.160156 33.941406 271.230469 34.875 271.230469 36.019531 C 271.230469 37.164062 272.160156 38.097656 273.304688 38.097656 Z M 160.460938 38.097656 C 161.605469 38.097656 162.539062 37.164062 162.539062 36.019531 C 162.539062 34.875 161.605469 33.941406 160.460938 33.941406 C 159.3125 33.941406 158.382812 34.875 158.382812 36.019531 C 158.382812 37.164062 159.3125 38.097656 160.460938 38.097656 Z M 79.34375 100.398438 L 71.265625 100.398438 L 71.265625 101.195312 L 79.34375 101.195312 Z M 83.550781 98.546875 L 83.550781 97.75 L 78.410156 97.75 L 78.410156 98.546875 Z M 76.40625 97.75 L 71.265625 97.75 L 71.265625 98.546875 L 76.40625 98.546875 Z M 83.550781 95.105469 L 71.265625 95.105469 L 71.265625 95.898438 L 83.550781 95.898438 Z M 50.136719 38.097656 C 51.28125 38.097656 52.210938 37.164062 52.210938 36.019531 C 52.210938 34.875 51.28125 33.941406 50.136719 33.941406 C 48.992188 33.941406 48.058594 34.875 48.058594 36.019531 C 48.058594 37.164062 48.992188 38.097656 50.136719 38.097656 Z M 35.367188 158.734375 L 36.164062 158.734375 L 36.164062 157.886719 L 47.222656 157.886719 L 47.222656 158.734375 L 48.015625 158.734375 L 48.015625 157.886719 L 59.078125 157.886719 L 59.078125 158.734375 L 59.871094 158.734375 L 59.871094 157.886719 L 70.933594 157.886719 L 70.933594 158.734375 L 71.726562 158.734375 L 71.726562 157.886719 L 82.785156 157.886719 L 82.785156 158.734375 L 83.582031 158.734375 L 83.582031 157.886719 L 87.191406 157.886719 L 87.191406 157.09375 L 83.582031 157.09375 L 83.582031 156.246094 L 82.785156 156.246094 L 82.785156 157.09375 L 71.726562 157.09375 L 71.726562 156.246094 L 70.933594 156.246094 L 70.933594 157.09375 L 59.871094 157.09375 L 59.871094 156.246094 L 59.078125 156.246094 L 59.078125 157.09375 L 48.015625 157.09375 L 48.015625 156.246094 L 47.222656 156.246094 L 47.222656 157.09375 L 36.164062 157.09375 L 36.164062 156.246094 L 35.367188 156.246094 L 35.367188 157.09375 L 31.832031 157.09375 L 31.832031 157.886719 L 35.367188 157.886719 Z M 293.082031 128.257812 C 293.082031 127.820312 292.726562 127.460938 292.289062 127.460938 L 189.730469 127.460938 C 189.292969 127.460938 188.9375 127.820312 188.9375 128.257812 C 188.9375 128.695312 189.292969 129.050781 189.730469 129.050781 L 292.289062 129.050781 C 292.726562 129.050781 293.082031 128.695312 293.082031 128.257812 Z M 269.890625 241.1875 L 264.597656 241.1875 C 264.160156 241.1875 263.804688 241.542969 263.804688 241.980469 C 263.804688 242.421875 264.160156 242.773438 264.597656 242.773438 L 269.890625 242.773438 C 270.328125 242.773438 270.6875 242.421875 270.6875 241.980469 C 270.6875 241.542969 270.328125 241.1875 269.890625 241.1875 Z M 271.335938 236.792969 C 271.335938 236.351562 270.980469 236 270.542969 236 L 265.25 236 C 264.8125 236 264.457031 236.351562 264.457031 236.792969 C 264.457031 237.230469 264.8125 237.585938 265.25 237.585938 L 270.542969 237.585938 C 270.980469 237.585938 271.335938 237.230469 271.335938 236.792969 Z M 272.640625 226.414062 C 272.640625 225.976562 272.285156 225.621094 271.847656 225.621094 L 266.550781 225.621094 C 266.117188 225.621094 265.757812 225.976562 265.757812 226.414062 C 265.757812 226.855469 266.117188 227.210938 266.550781 227.210938 L 271.847656 227.210938 C 272.285156 227.210938 272.640625 226.855469 272.640625 226.414062 Z M 273.289062 221.230469 C 273.289062 220.792969 272.9375 220.433594 272.496094 220.433594 L 267.207031 220.433594 C 266.765625 220.433594 266.414062 220.792969 266.414062 221.230469 C 266.414062 221.667969 266.765625 222.023438 267.207031 222.023438 L 272.496094 222.023438 C 272.9375 222.023438 273.289062 221.667969 273.289062 221.230469 Z M 273.945312 216.042969 C 273.945312 215.601562 273.589844 215.25 273.152344 215.25 L 267.859375 215.25 C 267.421875 215.25 267.0625 215.601562 267.0625 216.042969 C 267.0625 216.480469 267.421875 216.835938 267.859375 216.835938 L 273.152344 216.835938 C 273.589844 216.835938 273.945312 216.480469 273.945312 216.042969 Z M 198.679688 212.976562 C 198.597656 213.625 199.054688 214.152344 199.703125 214.152344 C 200.351562 214.152344 200.945312 213.625 201.023438 212.976562 C 201.109375 212.328125 200.648438 211.800781 200 211.800781 C 199.351562 211.800781 198.761719 212.328125 198.679688 212.976562 Z M 208.253906 139.898438 C 208.171875 140.546875 208.632812 141.070312 209.28125 141.070312 C 209.929688 141.070312 210.519531 140.546875 210.601562 139.898438 C 210.679688 139.25 210.222656 138.722656 209.574219 138.722656 C 208.925781 138.722656 208.335938 139.25 208.253906 139.898438 Z M 220.003906 167.796875 C 219.566406 167.796875 219.207031 168.148438 219.207031 168.589844 C 219.207031 169.027344 219.566406 169.382812 220.003906 169.382812 L 229.730469 169.382812 C 230.167969 169.382812 230.523438 169.027344 230.523438 168.589844 C 230.523438 168.148438 230.167969 167.796875 229.730469 167.796875 Z M 276.917969 192.375 C 276.917969 191.9375 276.5625 191.582031 276.125 191.582031 L 270.832031 191.582031 C 270.394531 191.582031 270.039062 191.9375 270.039062 192.375 C 270.039062 192.816406 270.394531 193.167969 270.832031 193.167969 L 276.125 193.167969 C 276.5625 193.167969 276.917969 192.816406 276.917969 192.375 Z M 277.570312 187.1875 C 277.570312 186.746094 277.214844 186.394531 276.777344 186.394531 L 271.484375 186.394531 C 271.046875 186.394531 270.6875 186.746094 270.6875 187.1875 C 270.6875 187.625 271.046875 187.980469 271.484375 187.980469 L 276.777344 187.980469 C 277.214844 187.980469 277.570312 187.625 277.570312 187.1875 Z M 278.222656 182 C 278.222656 181.5625 277.863281 181.203125 277.425781 181.203125 L 272.132812 181.203125 C 271.695312 181.203125 271.339844 181.5625 271.339844 182 C 271.339844 182.441406 271.695312 182.792969 272.132812 182.792969 L 277.425781 182.792969 C 277.863281 182.792969 278.222656 182.441406 278.222656 182 Z M 278.871094 176.8125 C 278.871094 176.371094 278.519531 176.019531 278.078125 176.019531 L 272.789062 176.019531 C 272.347656 176.019531 271.996094 176.371094 271.996094 176.8125 C 271.996094 177.25 272.347656 177.605469 272.789062 177.605469 L 278.078125 177.605469 C 278.519531 177.605469 278.871094 177.25 278.871094 176.8125 Z M 280.175781 166.4375 C 280.175781 165.996094 279.820312 165.644531 279.382812 165.644531 L 274.089844 165.644531 C 273.652344 165.644531 273.296875 165.996094 273.296875 166.4375 C 273.296875 166.875 273.652344 167.230469 274.089844 167.230469 L 279.382812 167.230469 C 279.820312 167.230469 280.175781 166.875 280.175781 166.4375 Z M 280.828125 161.25 C 280.828125 160.8125 280.472656 160.453125 280.035156 160.453125 L 274.742188 160.453125 C 274.304688 160.453125 273.949219 160.8125 273.949219 161.25 C 273.949219 161.6875 274.304688 162.042969 274.742188 162.042969 L 280.035156 162.042969 C 280.472656 162.042969 280.828125 161.6875 280.828125 161.25 Z M 281.480469 156.0625 C 281.480469 155.621094 281.125 155.269531 280.6875 155.269531 L 275.394531 155.269531 C 274.957031 155.269531 274.601562 155.621094 274.601562 156.0625 C 274.601562 156.5 274.957031 156.855469 275.394531 156.855469 L 280.6875 156.855469 C 281.125 156.855469 281.480469 156.5 281.480469 156.0625 Z M 282.132812 150.875 C 282.132812 150.4375 281.777344 150.078125 281.335938 150.078125 L 276.046875 150.078125 C 275.605469 150.078125 275.253906 150.4375 275.253906 150.875 C 275.253906 151.3125 275.605469 151.667969 276.046875 151.667969 L 281.335938 151.667969 C 281.777344 151.667969 282.132812 151.3125 282.132812 150.875 Z M 282.78125 145.683594 C 282.78125 145.246094 282.429688 144.890625 281.988281 144.890625 L 276.699219 144.890625 C 276.261719 144.890625 275.90625 145.246094 275.90625 145.683594 C 275.90625 146.125 276.261719 146.476562 276.699219 146.476562 L 281.988281 146.476562 C 282.429688 146.476562 282.78125 146.125 282.78125 145.683594 Z M 161.15625 149.410156 L 164.886719 149.222656 C 165.070312 147.046875 165.699219 145.039062 166.730469 144.53125 C 165.632812 144.414062 164.566406 144.445312 163.753906 144.804688 C 163.699219 142.050781 162.613281 140.582031 161.929688 138.851562 C 161.917969 140.832031 162.457031 140.222656 162.25 142.875 C 162.132812 144.34375 162.433594 145.851562 162.085938 147.285156 C 161.90625 148.042969 161.554688 148.738281 161.15625 149.410156 Z M 165.683594 149.183594 L 168.796875 149.027344 C 168.558594 146.652344 167.800781 145.199219 167.246094 145.199219 C 166.683594 145.199219 165.902344 146.71875 165.683594 149.183594 Z M 168.855469 149.820312 L 165.632812 149.980469 C 165.625 150.167969 165.621094 150.355469 165.621094 150.550781 C 165.621094 153.816406 166.585938 155.902344 167.246094 155.902344 C 167.90625 155.902344 168.871094 153.816406 168.871094 150.550781 C 168.871094 150.300781 168.863281 150.058594 168.855469 149.820312 Z M 94.003906 181.734375 C 93.140625 176.058594 94.796875 170.046875 98.445312 165.617188 C 99.78125 163.992188 101.433594 162.453125 101.847656 160.390625 C 102.269531 158.261719 101.261719 156.148438 100.800781 154.027344 C 99.921875 149.984375 101.171875 145.535156 104.03125 142.542969 C 106.222656 140.246094 109.257812 138.789062 111.109375 136.207031 C 112.664062 134.046875 113.210938 131.347656 114.273438 128.910156 C 117.257812 122.074219 124.808594 117.523438 132.246094 118.078125 C 134.3125 115.5 138.3125 114.296875 141.5625 114.871094 C 144.8125 115.441406 147.703125 117.289062 150.230469 119.410156 C 158.183594 118.191406 168.179688 125.78125 170.960938 145.472656 C 170.210938 145.25 169.171875 144.953125 168.074219 144.734375 C 169.109375 145.621094 169.667969 148.148438 169.667969 150.550781 C 169.667969 153.527344 168.816406 156.695312 167.246094 156.695312 C 165.675781 156.695312 164.828125 153.527344 164.828125 150.550781 C 164.828125 150.375 164.832031 150.199219 164.839844 150.019531 L 163.039062 150.109375 C 163.382812 150.292969 163.640625 150.972656 163.640625 151.789062 C 163.640625 152.742188 163.289062 153.519531 162.855469 153.519531 C 162.417969 153.519531 162.066406 152.742188 162.066406 151.789062 C 162.066406 150.996094 162.308594 150.335938 162.636719 150.128906 L 160.644531 150.226562 C 160.175781 150.96875 159.695312 151.710938 159.375 152.523438 C 157.902344 156.25 159.988281 160.472656 159.402344 164.441406 C 159.035156 166.929688 157.640625 169.136719 156.886719 171.535156 C 155.820312 174.941406 156.570312 179.652344 158.136719 182.863281 L 147.125 182.863281 C 146.433594 180.265625 145.546875 177.910156 145.449219 175.226562 C 144.71875 178.035156 144.394531 180.59375 144.148438 183.488281 C 142.792969 179.828125 141.898438 176.265625 141.808594 172.367188 C 141.421875 175.488281 141.289062 178.613281 140.898438 181.734375 Z M 168.441406 288.894531 C 169.660156 290.429688 170.996094 291.875 172.460938 293.195312 C 173.914062 294.515625 175.53125 295.6875 177.3125 296.589844 C 178.210938 297.019531 179.15625 297.367188 180.128906 297.613281 C 181.125 297.828125 182.082031 297.933594 183.046875 298.070312 C 184.980469 298.316406 186.917969 298.558594 188.855469 298.730469 C 192.734375 299.101562 196.621094 299.34375 200.519531 299.414062 C 200.617188 299.414062 200.699219 299.339844 200.703125 299.242188 C 200.710938 299.144531 200.632812 299.058594 200.53125 299.054688 C 198.59375 298.945312 196.65625 298.789062 194.722656 298.609375 C 192.789062 298.441406 190.859375 298.253906 188.929688 298.035156 C 187 297.804688 185.070312 297.582031 183.148438 297.316406 C 182.191406 297.175781 181.214844 297.058594 180.3125 296.855469 C 179.398438 296.617188 178.511719 296.289062 177.660156 295.875 C 174.238281 294.179688 171.429688 291.410156 168.960938 288.472656 C 167.71875 286.992188 166.570312 285.429688 165.488281 283.824219 C 164.398438 282.222656 163.367188 280.574219 162.449219 278.875 L 162.445312 278.867188 C 162.402344 278.796875 162.316406 278.769531 162.242188 278.804688 C 162.167969 278.84375 162.136719 278.933594 162.175781 279.007812 C 163.910156 282.507812 165.996094 285.832031 168.441406 288.894531 Z M 141.875 240.898438 C 141.433594 240.636719 141.027344 240.328125 140.636719 239.996094 C 140.25 239.660156 139.890625 239.277344 139.535156 238.878906 C 139.492188 238.832031 139.421875 238.8125 139.363281 238.835938 C 139.285156 238.867188 139.242188 238.957031 139.273438 239.035156 C 139.6875 240.078125 140.492188 240.96875 141.453125 241.574219 C 141.933594 241.875 142.445312 242.121094 142.980469 242.285156 C 143.429688 242.429688 143.886719 242.527344 144.347656 242.585938 C 145.875 246.066406 147.464844 249.527344 149.0625 252.976562 C 150.882812 256.816406 152.71875 260.652344 154.605469 264.460938 C 156.492188 268.269531 158.417969 272.058594 160.433594 275.804688 C 160.480469 275.890625 160.585938 275.925781 160.671875 275.882812 C 160.761719 275.835938 160.796875 275.730469 160.753906 275.640625 C 159.816406 273.734375 158.898438 271.816406 157.988281 269.902344 L 155.238281 264.152344 L 149.777344 252.640625 C 147.953125 248.804688 146.175781 244.949219 144.417969 241.085938 C 143.535156 239.152344 142.675781 237.210938 141.84375 235.265625 C 141.015625 233.3125 140.167969 231.359375 139.550781 229.34375 L 139.546875 229.335938 C 139.527344 229.257812 139.441406 229.214844 139.363281 229.234375 C 139.28125 229.257812 139.234375 229.339844 139.257812 229.421875 C 140.433594 233.535156 142.136719 237.445312 143.800781 241.355469 C 143.898438 241.574219 143.996094 241.789062 144.09375 242.007812 C 143.804688 241.882812 143.515625 241.761719 143.238281 241.632812 C 142.765625 241.40625 142.304688 241.171875 141.875 240.898438 Z M 162.707031 165.503906 C 163.007812 165.695312 163.347656 165.816406 163.691406 165.902344 C 164.039062 165.96875 164.390625 166.003906 164.734375 165.96875 C 164.910156 165.957031 165.078125 165.921875 165.246094 165.898438 C 165.414062 165.847656 165.578125 165.804688 165.738281 165.738281 C 165.789062 165.71875 165.824219 165.671875 165.832031 165.617188 C 165.847656 165.53125 165.789062 165.453125 165.699219 165.4375 C 165.046875 165.335938 164.449219 165.269531 163.867188 165.128906 C 163.578125 165.0625 163.300781 164.972656 163.019531 164.875 C 162.742188 164.777344 162.460938 164.644531 162.199219 164.519531 L 162.164062 164.5 C 162.113281 164.472656 162.050781 164.472656 161.996094 164.507812 C 161.90625 164.558594 161.878906 164.671875 161.929688 164.753906 C 162.128906 165.089844 162.402344 165.3125 162.707031 165.503906 Z M 326.957031 300.285156 L 313.210938 279.613281 L 313.210938 279.433594 L 303.269531 279.320312 L 293.328125 279.285156 L 273.441406 279.214844 L 253.558594 279.300781 L 243.617188 279.347656 L 233.671875 279.460938 L 233.671875 279.765625 L 233.902344 279.769531 L 234.6875 280.292969 L 237.320312 284.820312 L 232.683594 284.160156 C 232.714844 284.148438 232.742188 284.136719 232.773438 284.121094 C 232.953125 284.03125 233.105469 283.894531 233.238281 283.75 C 233.367188 283.59375 233.480469 283.425781 233.550781 283.238281 C 233.617188 283.050781 233.664062 282.851562 233.644531 282.640625 C 233.636719 282.601562 233.621094 282.5625 233.597656 282.53125 C 233.523438 282.449219 233.398438 282.4375 233.316406 282.507812 L 233.304688 282.515625 C 233.160156 282.640625 233.054688 282.765625 232.941406 282.882812 C 232.832031 282.996094 232.738281 283.117188 232.636719 283.234375 C 232.542969 283.355469 232.441406 283.472656 232.347656 283.605469 C 232.246094 283.734375 232.144531 283.863281 232.046875 284.03125 L 232.039062 284.035156 C 232.039062 284.042969 232.039062 284.042969 232.035156 284.050781 L 231.992188 283.980469 L 227.417969 283.011719 C 227.449219 282.898438 227.480469 282.792969 227.5 282.683594 C 227.582031 282.300781 227.601562 281.914062 227.605469 281.527344 C 227.597656 281.136719 227.566406 280.746094 227.480469 280.371094 C 227.398438 279.992188 227.285156 279.617188 227.105469 279.269531 C 227.074219 279.210938 227.011719 279.167969 226.945312 279.167969 C 226.84375 279.164062 226.757812 279.25 226.757812 279.351562 C 226.75 279.730469 226.773438 280.09375 226.78125 280.457031 L 226.8125 281.539062 L 226.832031 282.621094 C 226.835938 282.855469 226.84375 283.09375 226.847656 283.328125 L 224.566406 283.003906 C 216.636719 281.816406 208.695312 280.609375 200.835938 279.058594 C 198.875 278.667969 196.90625 278.269531 195.011719 277.710938 C 194.546875 277.566406 194.070312 277.410156 193.671875 277.207031 C 193.460938 277.085938 193.421875 277.0625 193.265625 276.808594 L 192.859375 276.199219 C 192.332031 275.351562 191.808594 274.496094 191.296875 273.636719 C 189.246094 270.191406 187.234375 266.714844 185.230469 263.242188 L 178.128906 250.90625 L 262.929688 250.90625 L 267.601562 268.773438 L 301.246094 268.773438 L 296.582031 250.90625 L 347.675781 250.90625 C 352.664062 250.90625 356.847656 247.15625 357.398438 242.203125 L 369.691406 131.269531 C 370.335938 125.476562 365.800781 120.410156 359.972656 120.410156 L 187.796875 120.410156 C 182.8125 120.410156 178.625 124.160156 178.074219 129.113281 L 167.304688 226.285156 C 168.324219 229.257812 169.160156 232.160156 169.699219 234.824219 L 181.375 129.480469 C 181.738281 126.203125 184.496094 123.730469 187.796875 123.730469 L 359.972656 123.730469 C 361.832031 123.730469 363.542969 124.496094 364.785156 125.882812 C 366.027344 127.269531 366.597656 129.054688 366.394531 130.90625 L 354.097656 241.835938 C 353.734375 245.113281 350.972656 247.585938 347.675781 247.585938 L 269.894531 247.585938 C 269.976562 247.464844 270.03125 247.324219 270.03125 247.167969 C 270.03125 246.726562 269.679688 246.375 269.238281 246.375 L 263.949219 246.375 C 263.507812 246.375 263.152344 246.726562 263.152344 247.167969 C 263.152344 247.324219 263.210938 247.464844 263.289062 247.585938 L 176.214844 247.585938 L 173.210938 242.371094 C 173.171875 242.300781 173.082031 242.273438 173.007812 242.316406 C 172.933594 242.355469 172.90625 242.449219 172.945312 242.523438 L 175.746094 247.585938 L 175.65625 247.585938 C 176.230469 248.714844 176.800781 249.820312 177.367188 250.90625 L 177.578125 250.90625 L 178.769531 253.0625 L 184.691406 263.550781 C 186.675781 267.042969 188.65625 270.53125 190.691406 273.996094 C 191.195312 274.863281 191.714844 275.726562 192.242188 276.589844 L 192.664062 277.234375 C 192.753906 277.351562 192.761719 277.425781 192.933594 277.585938 C 193.074219 277.726562 193.195312 277.78125 193.324219 277.855469 C 193.820312 278.113281 194.300781 278.269531 194.792969 278.425781 C 196.742188 279.015625 198.710938 279.425781 200.683594 279.832031 C 208.582031 281.351562 216.53125 282.507812 224.472656 283.652344 L 236.40625 285.289062 L 248.355469 286.753906 C 248.453125 286.765625 248.546875 286.695312 248.554688 286.601562 C 248.570312 286.5 248.5 286.410156 248.402344 286.398438 L 243.988281 285.769531 L 247.890625 279.898438 L 253.558594 279.921875 L 273.441406 280.007812 L 293.328125 279.9375 L 303.269531 279.902344 L 308.074219 279.847656 L 321.664062 300.285156 L 316.632812 300.285156 L 309.417969 292.121094 L 306.089844 294.308594 L 312.253906 300.285156 L 292.28125 300.285156 L 310.441406 288.757812 L 284.855469 288.757812 L 288.703125 295.828125 C 288.996094 296.371094 288.773438 297.050781 288.210938 297.308594 C 287.171875 297.234375 285.996094 296.742188 285 296.050781 C 285 296.027344 285.007812 296.007812 285 295.988281 C 284.570312 294.976562 284.5625 293.863281 284.425781 292.71875 C 284.363281 292.144531 284.238281 291.554688 284.011719 290.984375 C 283.785156 290.414062 283.464844 289.894531 283.089844 289.425781 C 282.316406 288.511719 281.386719 287.789062 280.449219 287.148438 C 279.507812 286.503906 278.570312 285.898438 277.726562 285.160156 C 277.671875 285.113281 277.589844 285.109375 277.53125 285.160156 C 277.464844 285.210938 277.457031 285.304688 277.507812 285.371094 C 278.238281 286.277344 279.167969 286.988281 280.050781 287.6875 C 280.933594 288.386719 281.8125 289.074219 282.476562 289.925781 C 282.8125 290.339844 283.109375 290.789062 283.308594 291.269531 C 283.519531 291.75 283.621094 292.28125 283.730469 292.824219 C 283.894531 293.707031 283.996094 294.683594 284.382812 295.574219 C 283.894531 295.15625 283.472656 294.695312 283.183594 294.214844 L 280.65625 289.984375 L 276.160156 288.898438 C 276.148438 288.886719 276.144531 288.875 276.132812 288.863281 C 276.09375 288.816406 276.027344 288.792969 275.964844 288.816406 C 275.953125 288.820312 275.945312 288.835938 275.933594 288.84375 L 275.875 288.832031 L 269.546875 293.726562 C 269.554688 293.6875 269.558594 293.652344 269.5625 293.621094 C 269.601562 293.289062 269.578125 292.957031 269.53125 292.628906 C 269.472656 292.296875 269.386719 291.976562 269.25 291.671875 C 269.113281 291.371094 268.949219 291.078125 268.722656 290.832031 C 268.679688 290.789062 268.613281 290.761719 268.550781 290.777344 C 268.449219 290.789062 268.382812 290.890625 268.402344 290.992188 C 268.449219 291.304688 268.523438 291.597656 268.582031 291.890625 C 268.632812 292.183594 268.703125 292.46875 268.746094 292.761719 C 268.808594 293.050781 268.84375 293.339844 268.894531 293.636719 C 268.921875 293.808594 268.949219 293.988281 268.976562 294.167969 L 263.949219 298.058594 C 262.519531 299.164062 260.867188 299.90625 259.125 300.285156 L 254.242188 300.285156 L 248.054688 299.429688 C 248.429688 299.089844 248.773438 298.695312 249.011719 298.230469 C 249.316406 297.664062 249.464844 296.996094 249.367188 296.367188 C 249.355469 296.292969 249.292969 296.226562 249.210938 296.214844 C 249.113281 296.203125 249.023438 296.273438 249.007812 296.371094 C 248.925781 296.929688 248.726562 297.433594 248.421875 297.878906 C 248.292969 298.0625 248.140625 298.230469 247.984375 298.398438 C 247.976562 298.035156 247.929688 297.671875 247.84375 297.320312 C 247.675781 296.636719 247.390625 295.988281 246.964844 295.445312 C 246.925781 295.394531 246.851562 295.371094 246.789062 295.398438 C 246.710938 295.429688 246.671875 295.515625 246.699219 295.59375 C 246.929688 296.207031 247.097656 296.816406 247.167969 297.441406 C 247.242188 298.066406 247.238281 298.6875 247.140625 299.296875 C 247.136719 299.316406 247.144531 299.335938 247.144531 299.359375 L 204.503906 299.050781 L 202.636719 300.285156 L 163.578125 300.285156 C 163.675781 300.550781 163.773438 300.816406 163.875 301.078125 L 369.753906 301.078125 L 369.753906 300.285156 Z M 45.804688 300.285156 L 45.804688 301.078125 L 134.570312 301.078125 C 139.949219 301.078125 141.5 300.285156 141.5 300.285156 C 142.199219 300.097656 142.867188 299.839844 143.503906 299.53125 C 148.058594 297.300781 150.804688 292.113281 149.503906 286.765625 L 134.3125 224.25 C 133.085938 219.199219 128.566406 215.648438 123.375 215.648438 L 38.507812 215.648438 C 31.21875 215.648438 25.851562 222.480469 27.574219 229.566406 L 42.765625 292.082031 C 43.75 296.140625 46.871094 299.226562 50.75 300.285156 Z M 169.039062 312.683594 C 169.039062 312.683594 169.019531 312.828125 168.976562 313.078125 L 168.980469 313.078125 C 168.425781 316.394531 163.371094 340.179688 132.007812 340.179688 C 120.523438 340.179688 112.222656 338.28125 107.601562 336.851562 C 109.242188 346.242188 117.429688 353.382812 127.285156 353.382812 L 187.625 353.382812 C 202.5625 353.382812 217.140625 347.15625 217.140625 347.15625 L 212.453125 374.933594 L 243.214844 374.933594 C 243.214844 374.933594 246.773438 347.15625 248.308594 328.523438 C 249.210938 317.613281 241.175781 314.109375 234.359375 313.078125 L 289.699219 313.078125 L 286.105469 344.023438 L 297.480469 345.910156 L 301.292969 313.078125 L 342.25 313.078125 L 347.011719 354.121094 L 358.835938 356.078125 L 353.84375 313.078125 L 369.753906 313.078125 L 369.753906 312.285156 L 168.835938 312.285156 C 168.964844 312.539062 169.039062 312.683594 169.039062 312.683594 Z M 100.320312 312.285156 L 45.804688 312.285156 L 45.804688 313.078125 L 72.03125 313.078125 C 72.007812 313.199219 72.019531 313.320312 71.988281 313.441406 L 71.882812 314.238281 C 71.800781 314.773438 71.773438 315.3125 71.71875 315.847656 L 71.628906 317.464844 L 71.585938 318.273438 L 71.566406 318.679688 C 71.574219 318.816406 71.476562 318.9375 71.730469 319.101562 C 72.023438 319 71.953125 318.859375 71.996094 318.726562 L 72.066406 318.328125 L 72.210938 317.53125 L 72.496094 315.941406 C 72.5625 315.402344 72.660156 314.871094 72.707031 314.335938 L 72.785156 313.53125 C 72.777344 313.378906 72.84375 313.234375 72.8125 313.078125 L 100.335938 313.078125 C 100.328125 312.816406 100.324219 312.550781 100.320312 312.285156 Z M 235.175781 139.898438 C 235.175781 139.460938 234.820312 139.101562 234.382812 139.101562 L 222.5625 139.101562 C 222.125 139.101562 221.765625 139.460938 221.765625 139.898438 C 221.765625 140.335938 222.125 140.691406 222.5625 140.691406 L 234.382812 140.691406 C 234.820312 140.691406 235.175781 140.335938 235.175781 139.898438 Z M 203.808594 139.898438 C 203.726562 140.546875 204.183594 141.070312 204.832031 141.070312 C 205.480469 141.070312 206.074219 140.546875 206.152344 139.898438 C 206.238281 139.25 205.777344 138.722656 205.128906 138.722656 C 204.484375 138.722656 203.890625 139.25 203.808594 139.898438 Z M 200.390625 141.070312 C 199.742188 141.070312 199.28125 140.546875 199.363281 139.898438 C 199.445312 139.25 200.035156 138.722656 200.683594 138.722656 C 201.332031 138.722656 201.792969 139.25 201.710938 139.898438 C 201.628906 140.546875 201.039062 141.070312 200.390625 141.070312 " fill-opacity="1" fill-rule="nonzero"/></g><g clip-path="url(#clip-4)"><path fill="rgb(46.669006%, 48.239136%, 52.159119%)" d="M 311.558594 268.773438 L 305.164062 268.773438 L 300.496094 250.90625 L 296.582031 250.90625 L 301.246094 268.773438 L 234.355469 268.773438 C 230.980469 268.773438 228.242188 271.511719 228.242188 274.890625 L 317.675781 274.890625 C 317.675781 271.511719 314.9375 268.773438 311.558594 268.773438 Z M 95.230469 268.351562 L 82.050781 268.351562 C 81.207031 268.351562 80.496094 268.984375 80.398438 269.824219 L 69.730469 362.304688 C 69.617188 363.289062 70.390625 364.160156 71.382812 364.160156 L 84.5625 364.160156 C 85.40625 364.160156 86.117188 363.527344 86.214844 362.683594 L 96.882812 270.207031 C 96.996094 269.21875 96.226562 268.351562 95.230469 268.351562 Z M 291.683594 300.664062 L 297.03125 300.664062 L 309.207031 292.660156 L 316.285156 300.664062 L 320.234375 300.664062 L 310.441406 288.757812 Z M 365.210938 120.410156 L 359.972656 120.410156 C 365.800781 120.410156 370.335938 125.476562 369.691406 131.269531 L 357.398438 242.203125 C 356.847656 247.15625 352.664062 250.90625 347.675781 250.90625 L 352.917969 250.90625 C 357.902344 250.90625 362.089844 247.15625 362.640625 242.203125 L 374.933594 131.269531 C 375.574219 125.476562 371.039062 120.410156 365.210938 120.410156 Z M 235.175781 139.898438 C 235.175781 139.460938 234.820312 139.101562 234.382812 139.101562 L 222.5625 139.101562 C 222.125 139.101562 221.765625 139.460938 221.765625 139.898438 C 221.765625 140.335938 222.125 140.691406 222.5625 140.691406 L 234.382812 140.691406 C 234.820312 140.691406 235.175781 140.335938 235.175781 139.898438 Z M 205.128906 138.722656 C 204.484375 138.722656 203.890625 139.25 203.808594 139.898438 C 203.726562 140.546875 204.183594 141.070312 204.832031 141.070312 C 205.480469 141.070312 206.074219 140.546875 206.152344 139.898438 C 206.238281 139.25 205.777344 138.722656 205.128906 138.722656 Z M 200.683594 138.722656 C 200.035156 138.722656 199.445312 139.25 199.363281 139.898438 C 199.28125 140.546875 199.742188 141.070312 200.390625 141.070312 C 201.039062 141.070312 201.628906 140.546875 201.710938 139.898438 C 201.792969 139.25 201.332031 138.722656 200.683594 138.722656 Z M 210.601562 139.898438 C 210.519531 140.546875 209.929688 141.070312 209.28125 141.070312 C 208.632812 141.070312 208.171875 140.546875 208.253906 139.898438 C 208.335938 139.25 208.925781 138.722656 209.574219 138.722656 C 210.222656 138.722656 210.679688 139.25 210.601562 139.898438 " fill-opacity="1" fill-rule="nonzero"/></g></svg>