<?xml version="1.0" encoding="UTF-8"?><svg xmlns="http://www.w3.org/2000/svg" xmlns:xlink="http://www.w3.org/1999/xlink" contentScriptType="text/ecmascript" width="375" zoomAndPan="magnify" contentStyleType="text/css" viewBox="0 0 375 374.999991" height="374.999991" preserveAspectRatio="xMidYMid meet" version="1.0"><defs><clipPath id="clip-0"><path d="M 2.511719 2.511719 L 372.261719 2.511719 L 372.261719 372.261719 L 2.511719 372.261719 Z M 2.511719 2.511719 " clip-rule="nonzero"/></clipPath></defs><path fill="rgb(100%, 87.059021%, 34.899902%)" d="M 187.390625 286.578125 C 132.691406 286.578125 88.191406 242.082031 88.191406 187.386719 C 88.191406 132.6875 132.691406 88.183594 187.390625 88.183594 C 242.085938 88.183594 286.582031 132.6875 286.582031 187.386719 C 286.582031 242.082031 242.085938 286.578125 187.390625 286.578125 Z M 187.390625 101.03125 C 139.773438 101.03125 101.035156 139.769531 101.035156 187.386719 C 101.035156 234.996094 139.777344 273.734375 187.390625 273.734375 C 235.003906 273.734375 273.738281 234.996094 273.738281 187.386719 C 273.738281 139.769531 235.007812 101.03125 187.390625 101.03125 Z M 187.390625 101.03125 " fill-opacity="1" fill-rule="nonzero"/><g clip-path="url(#clip-0)"><path fill="rgb(100%, 87.059021%, 34.899902%)" d="M 206.199219 372.261719 L 168.65625 372.261719 L 160.65625 332.527344 C 152.996094 331.121094 145.394531 329.082031 137.960938 326.425781 L 111.269531 356.832031 L 78.757812 338.101562 L 91.726562 299.699219 C 85.753906 294.605469 80.175781 289.03125 75.070312 283.039062 L 36.703125 295.984375 L 17.992188 263.566406 L 48.320312 236.785156 C 45.679688 229.363281 43.640625 221.78125 42.226562 214.144531 L 2.617188 206.214844 L 2.546875 168.566406 L 42.226562 160.582031 C 43.632812 152.953125 45.671875 145.378906 48.3125 137.96875 L 17.988281 111.128906 L 36.703125 78.78125 L 75.066406 91.679688 C 80.160156 85.710938 85.738281 80.128906 91.71875 75.023438 L 78.757812 36.59375 L 111.269531 17.898438 L 137.984375 48.28125 C 145.417969 45.632812 153.011719 43.59375 160.664062 42.1875 L 168.65625 2.511719 L 206.191406 2.511719 L 214.179688 42.199219 C 221.820312 43.609375 229.402344 45.648438 236.828125 48.292969 L 263.535156 17.894531 L 296.054688 36.59375 L 283.09375 74.988281 C 289.101562 80.101562 294.695312 85.6875 299.800781 91.667969 L 338.136719 78.78125 L 356.835938 111.128906 L 326.574219 137.898438 C 329.226562 145.335938 331.273438 152.945312 332.695312 160.613281 L 372.226562 168.566406 L 372.226562 206.214844 L 332.695312 214.109375 C 331.273438 221.78125 329.222656 229.390625 326.5625 236.847656 L 356.839844 263.5625 L 338.144531 295.984375 L 299.796875 283.054688 C 294.683594 289.042969 289.089844 294.628906 283.089844 299.730469 L 296.050781 338.097656 L 263.597656 356.835938 L 236.851562 326.417969 C 229.421875 329.066406 221.835938 331.105469 214.1875 332.515625 Z M 179.171875 359.417969 L 195.679688 359.417969 L 203.355469 321.230469 L 207.804688 320.5625 C 217.476562 319.09375 227.105469 316.507812 236.410156 312.867188 L 240.605469 311.230469 L 266.292969 340.445312 L 280.515625 332.238281 L 268.0625 295.382812 L 271.582031 292.574219 C 279.347656 286.371094 286.441406 279.296875 292.65625 271.535156 L 295.464844 268.035156 L 332.273438 280.449219 L 340.46875 266.246094 L 311.390625 240.582031 L 313.023438 236.398438 C 316.675781 227.058594 319.273438 217.410156 320.75 207.714844 L 321.433594 203.265625 L 359.382812 195.679688 L 359.382812 179.085938 L 321.425781 171.453125 L 320.75 167.011719 C 319.269531 157.308594 316.675781 147.664062 313.035156 138.355469 L 311.40625 134.175781 L 340.46875 108.472656 L 332.273438 94.304688 L 295.460938 106.679688 L 292.65625 103.179688 C 286.457031 95.445312 279.367188 88.363281 271.589844 82.140625 L 268.074219 79.332031 L 280.515625 42.476562 L 266.246094 34.269531 L 240.589844 63.472656 L 236.398438 61.839844 C 227.085938 58.203125 217.460938 55.613281 207.792969 54.148438 L 203.351562 53.472656 L 195.679688 15.355469 L 179.175781 15.355469 L 171.5 53.464844 L 167.046875 54.136719 C 157.371094 55.601562 147.738281 58.1875 138.421875 61.824219 L 134.234375 63.460938 L 108.5625 34.269531 L 94.296875 42.476562 L 106.738281 79.351562 L 103.234375 82.164062 C 95.484375 88.378906 88.410156 95.453125 82.214844 103.191406 L 79.40625 106.695312 L 42.5625 94.300781 L 34.367188 108.46875 L 63.484375 134.242188 L 61.855469 138.417969 C 58.226562 147.703125 55.644531 157.3125 54.179688 166.96875 L 53.503906 171.417969 L 15.410156 179.082031 L 15.445312 195.683594 L 53.503906 203.304688 L 54.179688 207.753906 C 55.644531 217.417969 58.230469 227.035156 61.867188 236.339844 L 63.5 240.523438 L 34.367188 266.246094 L 42.566406 280.449219 L 79.402344 268.019531 L 82.214844 271.523438 C 88.4375 279.289062 95.507812 286.359375 103.238281 292.550781 L 106.746094 295.359375 L 94.292969 332.230469 L 108.558594 340.445312 L 134.203125 311.230469 L 138.398438 312.875 C 147.710938 316.523438 157.34375 319.109375 167.039062 320.570312 L 171.488281 321.238281 Z M 179.171875 359.417969 " fill-opacity="1" fill-rule="nonzero"/></g><path fill="rgb(100%, 87.059021%, 34.899902%)" d="M 156.148438 219.46875 L 124.070312 187.394531 L 156.148438 155.308594 L 165.230469 164.390625 L 142.238281 187.386719 L 165.230469 210.382812 Z M 156.148438 219.46875 " fill-opacity="1" fill-rule="nonzero"/><path fill="rgb(100%, 87.059021%, 34.899902%)" d="M 218.628906 219.46875 L 209.546875 210.382812 L 232.546875 187.390625 L 209.546875 164.394531 L 218.628906 155.3125 L 250.710938 187.390625 Z M 218.628906 219.46875 " fill-opacity="1" fill-rule="nonzero"/><path fill="rgb(100%, 87.059021%, 34.899902%)" d="M 189.335938 139.457031 L 201.984375 141.691406 L 185.441406 235.320312 L 172.789062 233.085938 Z M 189.335938 139.457031 " fill-opacity="1" fill-rule="nonzero"/><path fill="rgb(100%, 87.059021%, 34.899902%)" d="M 180.96875 63.921875 L 193.816406 63.921875 L 193.816406 76.769531 L 180.96875 76.769531 Z M 180.96875 63.921875 " fill-opacity="1" fill-rule="nonzero"/><path fill="rgb(100%, 87.059021%, 34.899902%)" d="M 180.96875 298.003906 L 193.816406 298.003906 L 193.816406 310.847656 L 180.96875 310.847656 Z M 180.96875 298.003906 " fill-opacity="1" fill-rule="nonzero"/><path fill="rgb(100%, 87.059021%, 34.899902%)" d="M 63.929688 180.960938 L 76.773438 180.960938 L 76.773438 193.808594 L 63.929688 193.808594 Z M 63.929688 180.960938 " fill-opacity="1" fill-rule="nonzero"/><path fill="rgb(100%, 87.059021%, 34.899902%)" d="M 298.007812 180.960938 L 310.855469 180.960938 L 310.855469 193.808594 L 298.007812 193.808594 Z M 298.007812 180.960938 " fill-opacity="1" fill-rule="nonzero"/></svg>