<?xml version="1.0" encoding="UTF-8"?><svg xmlns="http://www.w3.org/2000/svg" xmlns:xlink="http://www.w3.org/1999/xlink" contentScriptType="text/ecmascript" width="375" zoomAndPan="magnify" contentStyleType="text/css" viewBox="0 0 375 374.999991" height="374.999991" preserveAspectRatio="xMidYMid meet" version="1.0"><defs><clipPath id="clip-0"><path d="M 20.003906 20.003906 L 355.253906 20.003906 L 355.253906 355.253906 L 20.003906 355.253906 Z M 20.003906 20.003906 " clip-rule="nonzero"/></clipPath></defs><rect x="-37.5" width="450" fill="rgb(100%, 100%, 100%)" y="-37.499999" height="449.999989" fill-opacity="1"/><rect x="-37.5" width="450" fill="rgb(100%, 100%, 100%)" y="-37.499999" height="449.999989" fill-opacity="1"/><rect x="-37.5" width="450" fill="rgb(0%, 0%, 0%)" y="-37.499999" height="449.999989" fill-opacity="1"/><path fill="rgb(100%, 87.059021%, 34.899902%)" d="M 187.632812 277.566406 C 138.039062 277.566406 97.691406 237.222656 97.691406 187.628906 C 97.691406 138.035156 138.039062 97.683594 187.632812 97.683594 C 237.226562 97.683594 277.570312 138.035156 277.570312 187.628906 C 277.570312 237.222656 237.226562 277.566406 187.632812 277.566406 Z M 187.632812 109.332031 C 144.460938 109.332031 109.339844 144.457031 109.339844 187.628906 C 109.339844 230.796875 144.460938 265.921875 187.632812 265.921875 C 230.804688 265.921875 265.925781 230.800781 265.925781 187.628906 C 265.925781 144.457031 230.808594 109.332031 187.632812 109.332031 Z M 187.632812 109.332031 " fill-opacity="1" fill-rule="nonzero"/><g clip-path="url(#clip-0)"><path fill="rgb(100%, 87.059021%, 34.899902%)" d="M 204.6875 355.253906 L 170.648438 355.253906 L 163.394531 319.226562 C 156.449219 317.953125 149.554688 316.105469 142.816406 313.695312 L 118.617188 341.265625 L 89.136719 324.28125 L 100.898438 289.464844 C 95.480469 284.847656 90.425781 279.792969 85.792969 274.355469 L 51.007812 286.09375 L 34.042969 256.703125 L 61.542969 232.421875 C 59.144531 225.691406 57.296875 218.816406 56.015625 211.890625 L 20.101562 204.703125 L 20.039062 170.566406 L 56.015625 163.328125 C 57.289062 156.410156 59.140625 149.542969 61.535156 142.824219 L 34.039062 118.488281 L 51.007812 89.160156 L 85.789062 100.855469 C 90.410156 95.441406 95.464844 90.378906 100.890625 85.75 L 89.136719 50.910156 L 118.613281 33.957031 L 142.839844 61.507812 C 149.578125 59.105469 156.464844 57.253906 163.402344 55.976562 L 170.648438 20.003906 L 204.683594 20.003906 L 211.925781 55.988281 C 218.851562 57.269531 225.726562 59.117188 232.457031 61.515625 L 256.675781 33.953125 L 286.160156 50.910156 L 274.40625 85.71875 C 279.855469 90.355469 284.925781 95.421875 289.558594 100.84375 L 324.316406 89.160156 L 341.269531 118.488281 L 313.832031 142.761719 C 316.238281 149.503906 318.09375 156.402344 319.382812 163.355469 L 355.222656 170.566406 L 355.222656 204.703125 L 319.382812 211.859375 C 318.09375 218.816406 316.234375 225.71875 313.824219 232.476562 L 341.273438 256.699219 L 324.324219 286.09375 L 289.554688 274.375 C 284.917969 279.800781 279.84375 284.867188 274.402344 289.492188 L 286.15625 324.277344 L 256.730469 341.269531 L 232.480469 313.6875 C 225.746094 316.089844 218.867188 317.9375 211.929688 319.21875 Z M 180.183594 343.609375 L 195.148438 343.609375 L 202.109375 308.984375 L 206.144531 308.378906 C 214.914062 307.050781 223.644531 304.707031 232.082031 301.40625 L 235.882812 299.917969 L 259.171875 326.40625 L 272.070312 318.964844 L 260.78125 285.550781 L 263.96875 283.003906 C 271.011719 277.378906 277.441406 270.964844 283.078125 263.929688 L 285.625 260.753906 L 319 272.011719 L 326.425781 259.132812 L 300.0625 235.863281 L 301.546875 232.070312 C 304.859375 223.601562 307.210938 214.851562 308.550781 206.0625 L 309.167969 202.027344 L 343.578125 195.152344 L 343.578125 180.105469 L 309.164062 173.183594 L 308.550781 169.15625 C 307.207031 160.359375 304.859375 151.613281 301.554688 143.171875 L 300.078125 139.386719 L 326.425781 116.078125 L 319 103.234375 L 285.621094 114.453125 L 283.078125 111.28125 C 277.457031 104.269531 271.027344 97.847656 263.976562 92.207031 L 260.789062 89.65625 L 272.070312 56.242188 L 259.132812 48.800781 L 235.871094 75.28125 L 232.066406 73.796875 C 223.625 70.5 214.898438 68.15625 206.132812 66.824219 L 202.105469 66.214844 L 195.152344 31.652344 L 180.183594 31.652344 L 173.226562 66.203125 L 169.191406 66.8125 C 160.414062 68.140625 151.683594 70.484375 143.234375 73.785156 L 139.4375 75.269531 L 116.164062 48.800781 L 103.226562 56.242188 L 114.507812 89.675781 L 111.332031 92.226562 C 104.304688 97.859375 97.890625 104.277344 92.269531 111.292969 L 89.722656 114.46875 L 56.320312 103.230469 L 48.890625 116.074219 L 75.289062 139.445312 L 73.8125 143.230469 C 70.519531 151.648438 68.179688 160.363281 66.851562 169.117188 L 66.238281 173.152344 L 31.699219 180.101562 L 31.730469 195.152344 L 66.238281 202.066406 L 66.851562 206.097656 C 68.179688 214.859375 70.527344 223.578125 73.824219 232.015625 L 75.304688 235.808594 L 48.886719 259.132812 L 56.324219 272.011719 L 89.722656 260.738281 L 92.269531 263.917969 C 97.914062 270.957031 104.328125 277.367188 111.335938 282.980469 L 114.515625 285.527344 L 103.226562 318.957031 L 116.160156 326.410156 L 139.410156 299.917969 L 143.214844 301.410156 C 151.65625 304.71875 160.390625 307.0625 169.179688 308.386719 L 173.214844 308.992188 Z M 180.183594 343.609375 " fill-opacity="1" fill-rule="nonzero"/></g><path fill="rgb(100%, 87.059021%, 34.899902%)" d="M 159.308594 216.71875 L 130.222656 187.636719 L 159.308594 158.542969 L 167.542969 166.78125 L 146.695312 187.632812 L 167.542969 208.480469 Z M 159.308594 216.71875 " fill-opacity="1" fill-rule="nonzero"/><path fill="rgb(100%, 87.059021%, 34.899902%)" d="M 215.960938 216.71875 L 207.722656 208.480469 L 228.578125 187.632812 L 207.722656 166.785156 L 215.960938 158.550781 L 245.046875 187.632812 Z M 215.960938 216.71875 " fill-opacity="1" fill-rule="nonzero"/><path fill="rgb(100%, 87.059021%, 34.899902%)" d="M 189.398438 144.171875 L 200.867188 146.199219 L 185.867188 231.089844 L 174.394531 229.066406 Z M 189.398438 144.171875 " fill-opacity="1" fill-rule="nonzero"/><path fill="rgb(100%, 87.059021%, 34.899902%)" d="M 181.8125 75.6875 L 193.460938 75.6875 L 193.460938 87.335938 L 181.8125 87.335938 Z M 181.8125 75.6875 " fill-opacity="1" fill-rule="nonzero"/><path fill="rgb(100%, 87.059021%, 34.899902%)" d="M 181.8125 287.925781 L 193.460938 287.925781 L 193.460938 299.574219 L 181.8125 299.574219 Z M 181.8125 287.925781 " fill-opacity="1" fill-rule="nonzero"/><path fill="rgb(100%, 87.059021%, 34.899902%)" d="M 75.691406 181.804688 L 87.339844 181.804688 L 87.339844 193.453125 L 75.691406 193.453125 Z M 75.691406 181.804688 " fill-opacity="1" fill-rule="nonzero"/><path fill="rgb(100%, 87.059021%, 34.899902%)" d="M 287.929688 181.804688 L 299.578125 181.804688 L 299.578125 193.453125 L 287.929688 193.453125 Z M 287.929688 181.804688 " fill-opacity="1" fill-rule="nonzero"/></svg>